<?xml version="1.0" encoding="UTF-8" standalone="no"?>
<!-- Generator: Adobe Illustrator 15.1.0, SVG Export Plug-In . SVG Version: 6.00 Build 0)  -->

<svg
   xmlns:dc="http://purl.org/dc/elements/1.1/"
   xmlns:cc="http://creativecommons.org/ns#"
   xmlns:rdf="http://www.w3.org/1999/02/22-rdf-syntax-ns#"
   xmlns:svg="http://www.w3.org/2000/svg"
   xmlns="http://www.w3.org/2000/svg"
   xmlns:sodipodi="http://sodipodi.sourceforge.net/DTD/sodipodi-0.dtd"
   xmlns:inkscape="http://www.inkscape.org/namespaces/inkscape"
   version="1.1"
   x="0px"
   y="0px"
   width="148.92485mm"
   height="186.48132mm"
   viewBox="0 0 562.8656 704.8113"
   enable-background="new 0 0 681 960"
   xml:space="preserve"
   id="svg68"
   sodipodi:docname="toastrack_cleaned.svg"
   inkscape:version="0.92.3 (2405546, 2018-03-11)"><metadata
   id="metadata74"><rdf:RDF><cc:Work
       rdf:about=""><dc:format>image/svg+xml</dc:format><dc:type
         rdf:resource="http://purl.org/dc/dcmitype/StillImage" /><dc:title></dc:title></cc:Work></rdf:RDF></metadata><defs
   id="defs72" /><sodipodi:namedview
   pagecolor="#ffffff"
   bordercolor="#666666"
   borderopacity="1"
   objecttolerance="10"
   gridtolerance="10"
   guidetolerance="10"
   inkscape:pageopacity="0"
   inkscape:pageshadow="2"
   inkscape:window-width="1916"
   inkscape:window-height="1029"
   id="namedview70"
   showgrid="false"
   inkscape:pagecheckerboard="false"
   units="mm"
   fit-margin-top="5"
   fit-margin-left="5"
   fit-margin-right="5"
   fit-margin-bottom="5"
   inkscape:zoom="0.884375"
   inkscape:cx="294.40261"
   inkscape:cy="320.84364"
   inkscape:window-x="0"
   inkscape:window-y="24"
   inkscape:window-maximized="0"
   inkscape:current-layer="svg68" />
<g
   id="Layer_1"
   transform="translate(-46.097382,-96.032362)">
	<path
   d="m 474.859,199.13 c 0.23,6.1 -0.66,12.76 2.889,18.14 1.352,-0.2 2.701,-0.45 4.063,-0.69 1.199,4.04 0.18,9.05 3.369,12.27 2.609,1.26 5.059,-2.22 7.818,-0.85 3.682,1.66 6.641,4.83 10.82,5.39 0.74,-2.87 0.301,-5.94 1.451,-8.71 2.17,2.37 3.768,5.9 7.41,6.15 0.1,-1.66 0.18,-3.31 0.27,-4.96 3.449,-2.95 6.35,-6.84 7.07,-11.43 1.119,-9.37 -0.83,-18.69 -2.621,-27.85 -1.229,-5.71 -5.82,-9.88 -7.74,-15.28 -0.568,-5.37 5.861,-8.46 5.5,-13.84 0.25,-4.99 -2.188,-9.62 -5.318,-13.33 -2.439,-2.93 -6.9,-5.78 -9.33,-8.72 3.148,-1.36 22.648,-11.12 26.238,-13.59 2.07,-1.68 2.23,-4.45 2.15,-6.9 -6.547,1.718 -30.123,4.757 -59.311,8.191 -2.125,-1.129 -4.436,-1.957 -7.143,-2.208 -4.797,-0.446 -9.934,1.764 -14.258,3.537 -1.195,0.49 -2.375,1.01 -3.543,1.555 -56.137,6.401 -120.252,13.258 -127.145,15.284 -1.934,0.607 -10.222,3.093 -10.222,3.093 0,0 -181.036,89.357 -199.846,101.047 -4.87,3.04 -9.42,6.57 -13.96,10.07 -3.6,2.84 -6.92,6.43 -7.83,11.08 4.61,1.99 8.07,-2.37 12.09,-3.7 3.01,-0.29 6.06,1.19 9.01,0.02 24.85,-7.29 48.7,-20.72 75.27,-19.95 -3.37,19.62 -10.96,38.28 -13.64,58.03 -0.62,4.42 -1.136,9.128 -2.186,13.498 -1.01,4.39 -2.73,8.66 -2.9,13.22 -0.24,6.67 0.795,13.222 2.136,19.782 1.1,4.91 4.82,9.36 3.56,14.64 -1.53,4.89 -6,7.97 -8.54,12.27 -3.21,5.49 -4.39,12.16 -3.12,18.41 1.76,9.71 7.3,18.15 12.61,26.27 3.62,5.31 7.25,10.671 11.66,15.36 3.94,4.2 9.54,6.312 13.48,10.512 4.9,4.77 8.15,18.729 7.45,19.47 1.21,3.57 2.93,6.93 4.93,10.13 2.25,3.34 2.3,7.67 1.33,11.46 -1.64,3.99 -4.97,6.9 -7.42,10.37 -2.78,3.62 -3.9,8.13 -5.59,12.3 -1.63,4.25 -3.43,8.91 -2.02,13.49 2.05,8.95 8.41,16.05 15.22,21.84 11.53,9.09 25.1,15.11 38.74,20.29 l 12.45,5.53 c 11.37,5.27 22.29,11.528 34.07,15.88 17.089,6.62 36.149,6.819 53.86,2.71 16.051,-3.431 31.699,-8.63 46.58,-15.57 11.279,-5.43 23.02,-9.96 33.859,-16.26 10.059,-5.95 19.58,-14.55 22.689,-26.22 1.98,-7.669 2.92,-16.73 -2.109,-23.48 -4,-6.6 -12.59,-10.18 -13.961,-18.31 -0.049,-10.312 7.43,-18.38 10.59,-27.75 1.65,-4.521 1.461,-10.261 5.621,-13.44 3.75,-2.96 7.869,-5.42 11.68,-8.3 10.48,-7.95 21.84,-14.68 32.141,-22.88 2.99,-2.5 4.77,-6.18 5.551,-9.94 1.469,-8.6 -0.021,-17.82 -4.891,-25.15 -4.721,-7.08 -10.4,-13.71 -17.619,-18.35 -5.301,-3.22 -7.311,-10.29 -5.73,-16.09 1.949,-7.82 7.709,-13.85 11.07,-21.03 7.93,-16.78 8.359,-36.1 5.719,-54.17 -2.439,-20.05 -10.34,-39.26 -22.129,-55.61 -14.271,-19.78 -33.271,-35.41 -52.18,-50.52 13.139,-3.45 49.629,-15.59 53.908,-16.9 -0.078,4.41 1.859,8.6 5.08,11.58 3.65,3.67 8.609,7.68 7.789,13.49 -1.35,7.64 -6.488,14.18 -6.719,22.12 z"
   id="path2"
   inkscape:connector-curvature="0"
   style="fill:#050505" />
	<path
   d="m 378.89,244.763 c 19.08,-4.6 39.062,-4.52 58.392,-1.47 7.38,1.15 15.04,2.13 21.729,5.68 6.03,3.2 8.84,9.8 11.182,15.85 4.27,11.54 8.47,23.58 7.938,36.06 -0.76,11.58 -7.29,21.52 -12.22,31.68 -3.96,7.71 -10.45,15.12 -9.99,24.25 1.9,4.78 5.87,8.37 8.87,12.47 5.94,7.38 12.77,14.09 17.72,22.22 2.08,3.54 2.65,8.9 -0.68,11.87 -3.812,4.24 -8.99,6.98 -12.61,11.42 -7.22,8.29 -13.358,18.44 -23.818,23.03 -7.602,3.5 -16.312,2.29 -23.98,-0.33 -10.28,-3.76 -19.55,-9.699 -29.36,-14.479 -4.318,-1.79 -9.5,-3.63 -14,-1.38 -1.898,1.21 -2.068,3.63 -1.289,5.57 2.431,6.681 7.851,11.601 11.439,17.601 0.93,1.24 0.88,2.83 1.021,4.311 -3.342,-0.101 -6.2,-2.54 -9.61,-2.08 -4.88,0.04 -7.98,5.931 -13.13,4.45 -7.271,-2.21 -14.21,-7.471 -22.2,-5.689 -3.6,0.399 -6,4.479 -9.771,3.63 -7.461,-1.351 -13.409,-7.601 -21.279,-7.319 -6.4,-0.181 -12.03,5.819 -18.5,3.359 -4.8,-1.301 -9.31,-4.591 -14.44,-3.99 -4.35,0.311 -3.98,6.75 -8.25,6.99 -2.37,0.569 -4.13,-1.439 -6.05,-2.42 -2.46,-2 -5.75,0.01 -8.4,-1.49 -0.06,-6.359 4.24,-11.63 5.1,-17.779 0.24,-2.29 -0.65,-5.74 -3.47,-5.7 -4.92,-0.58 -9.42,2.04 -13.72,4.05 -9.79,5.601 -20.83,9.57 -32.17,9.94 -13.19,-1.271 -23.66,-10.851 -31.66,-20.7 -4.66,-5.62 -9.32,-12.02 -9.8,-19.56 -0.21,-4.34 10.64,-19.43 14.4,-22.96 8.49,-8.72 17.8,-17.5 21.76,-29.35 1.1,-5.51 0.33,-11.2 -0.34,-16.72 -0.97,-6.45 -5.82,-12.9 -12.46,-14.1 -4.41,0.02 -5.45,5.48 -4.48,8.88 2.86,9.91 1.26,20.36 -0.41,30.34 0.33,0.28 -4.96,-7.42 -5.49,-12.06 0.51,-5.33 -1.981,-10.539 -1.741,-15.934 0.417,-8.884 3.011,-13.707 5.202,-20.306 2.36,-5.17 6.86,-9.021 11.41,-12.25 12.28,-7.55 25.48,-13.85 39.54,-17.29 8.83,-2.09 17.97,-2.34 27.01,-1.97 10.25,0.38 20.52,2.4 29.86,6.74 1.97,0.93 3.73,2.271 5.19,3.89 5.21,6.38 14.21,7.83 21.99,7.13 6.25,-0.86 12.8,-2.17 17.96,-6.03 2.608,-1.84 3.71,-4.94 5.38,-7.53 5.96,-9.43 13.64,-17.689 22.14,-24.88 3.045,-2.345 6.325,-4.595 10.085,-5.645 z"
   id="path4"
   inkscape:connector-curvature="0"
   style="fill:#fefefe" />
	<path
   d="m 462.259,291.835 c 1.278,-0.864 3.208,-1.412 4.518,-0.287 2.411,2.457 2.542,6.227 2.295,9.458 -1.748,7.523 -7.141,13.581 -12.905,18.444 -0.014,4.019 -1.817,7.703 -2.446,11.623 -2.354,2.772 -8.092,0.886 -8.945,-2.709 -2.492,-7.803 -1.119,-16.632 3.187,-23.55 3.449,-5.609 8.947,-9.383 14.296,-12.979 z"
   id="path6"
   inkscape:connector-curvature="0"
   style="fill:#050505" />
	<path
   d="m 269.46,298.71 c 7.26,-1.33 15.05,1.37 20.08,6.74 4.89,4.7 8.22,10.69 11.43,16.59 3.601,6.14 3.83,13.44 5.04,20.28 0.73,4.16 1.23,8.8 -1.229,12.53 -3.34,5.17 -6.74,10.43 -11.2,14.72 -13.18,11.02 -29.16,19.63 -46.59,20.74 -8.39,0.27 -16.87,0.37 -25.15,-1.21 -3.34,-0.93 -7.71,-3.02 -7.5,-7.09 -0.38,-2.64 2.89,-11.95 4.35,-14.46 1.47,-2.59 3.8,-4.69 4.74,-7.57 0.85,-5.7 -1.4,-11.51 0.31,-17.14 2.09,-8.1 4.66,-16.45 10.25,-22.89 9.199,-10.53 21.629,-18.58 35.469,-21.24 z"
   id="path8"
   inkscape:connector-curvature="0"
   style="fill:#050505" />
	<path
   d="m 240.65,341.6 c 4.01,-10.27 14.73,-16.58 25.32,-17.86 2.82,-0.17 6.55,-0.81 8.41,1.93 1.89,4.35 5.71,24.64 5.05,24.86 -0.64,4.36 -5.04,6.67 -5.9,10.96 -5.85,4.99 -14.06,5.76 -21.45,5.17 -5.78,-0.3 -11.66,-3.92 -13.42,-9.62 -0.73,-5.19 0.2,-10.55 1.99,-15.44 z"
   id="path10"
   inkscape:connector-curvature="0"
   style="fill:#fefefe" />
	<path
   d="m 327.33,367.11 c 3.3,-0.79 6.96,-0.28 9.61,1.93 5.42,4.85 6.688,12.99 12.8,17.21 5.278,3.97 11.56,7.5 14.14,13.96 1.74,5.2 1.39,11.33 -1.648,16.01 -4.972,7.57 -14.312,11.811 -23.28,10.98 -4.07,-0.28 -6.812,-4.46 -11,-4.15 -4.69,0.33 -8.08,4.04 -12.34,5.58 -5.521,2.48 -12.222,0.23 -15.771,-4.479 -6.77,-8.7 -7.15,-21.92 -0.59,-30.84 6.04,-8.49 11.42,-17.9 20.21,-23.91 2.259,-1.711 5.189,-1.811 7.869,-2.291 z"
   id="path12"
   inkscape:connector-curvature="0"
   style="fill:#050505" />
	<path
   d="m 397.01,438.21 c 14.79,5.32 20.102,13.78 35.91,16.21 -0.88,6.49 -0.87,8.8 -3.85,14.63 -2.472,4.72 -1.4,9.96 -5.48,13.59 -4.92,1.44 -10.3,-1.37 -12.35,-5.979 -3.3,-7.2 -3.5,-15.37 -6.38,-22.73 -2.87,-7.291 -4.99,-8.431 -7.85,-15.721 z"
   id="path14"
   inkscape:connector-curvature="0"
   style="fill:#fefefe" />
	<path
   d="m 246.667,437.44 c 3.209,4.848 -3.685,11.459 -5.045,15.708 -4.293,8.032 -2.975,17.263 -6.44,25.461 -1.15,4.099 -8.153,5.407 -10.847,2.942 C 219.381,477.388 206.31,453.138 210,446 c 9.169,0.123 29.975,-7.877 36.667,-8.56 z"
   id="path16"
   inkscape:connector-curvature="0"
   style="fill:#fefefe" />
	<path
   d="m 317.41,453.29 c 3.02,-1.69 6.479,0.52 8.13,3.1 2.27,4.15 3.11,9.062 2.8,13.65 -0.648,5.17 -1.25,10.49 -4.93,14.35 -1.535,2.061 -16.133,1.235 -18.035,-0.39 -7.2,-5.108 -6.276,-15.65 -1.196,-22.799 3.951,-3.311 8.461,-5.961 13.231,-7.911 z"
   id="path18"
   inkscape:connector-curvature="0"
   style="fill:#fefefe" />
	<path
   d="m 350.45,453.65 c 7.96,-2.021 16.51,4.238 17.108,12.408 0.382,7.682 -0.05,15.932 -3.5,22.91 -4.79,2.92 -10.8,1.392 -15.79,-0.21 -3.818,-1.108 -6.658,-4.38 -7.408,-8.25 -0.96,-6.02 -1.96,-12.358 0.09,-18.27 1.71,-4.048 5.26,-7.348 9.5,-8.588 z"
   id="path20"
   inkscape:connector-curvature="0"
   style="fill:#fefefe" />
	<path
   d="m 283.24,455.4 c 4.2,-1.132 7.6,-0.624 11.75,1.595 0,2.838 -2.165,7.6 -2.631,12.161 -0.602,5.892 0.293,11.449 -1.609,12.094 -2.5,1 -11.6,2.338 -17.21,-0.851 -4.18,-3.771 -2.82,-10.11 -0.58,-14.58 2.26,-4.319 5.2,-9.179 10.28,-10.419 z"
   id="path22"
   inkscape:connector-curvature="0"
   style="fill:#fefefe" />
	<path
   d="m 382.42,458.48 c 3.76,-1.74 8.8,-0.512 10.91,3.188 3.65,5.75 3.46,13.1 1.61,19.45 -1.08,3.12 -2.672,6.41 -5.66,8.11 -3.99,1.438 -8.57,-0.222 -10.78,-3.812 -4.07,-6.29 -5.2,-14.86 -1.73,-21.67 1.3,-2.236 3.12,-4.406 5.65,-5.266 z"
   id="path24"
   inkscape:connector-curvature="0"
   style="fill:#fefefe" />
	<path
   d="m 253.066,462.523 c 2.069,-3.771 7.774,-5.89 11.611,-3.537 -0.386,4.708 -2.567,9.433 -1.042,14.153 0.54,2.588 2,5.687 0.074,8.051 -3.706,2.478 -8.551,2.759 -12.864,2.243 -0.262,-0.325 -0.804,-0.99 -1.074,-1.327 -0.295,-6.657 1.094,-13.332 3.295,-19.583 z"
   id="path26"
   inkscape:connector-curvature="0"
   style="fill:#fefefe" />
	<path
   d="m 205.738,523.959 c -0.78,-7.021 0.97,-14.28 6.19,-19.04 5.382,-5.259 12.352,-8.379 18.692,-12.279 3.07,-1.77 7.6,-3.81 10.46,-0.54 1.34,3.132 1.88,6.562 2.33,9.932 0.52,2.17 -1.82,3.1 -3.08,4.37 -3.96,2.68 -4.44,8.02 -3.84,12.358 1.5,8.45 7.28,16.16 15.18,19.61 2.76,1.02 8.379,2.439 11.04,0.789 2.103,-1.722 2.012,-1.328 3.212,-4.675 0.141,3.104 0.719,4.734 3.708,7.926 3.027,3.269 9.865,4.592 14.525,3.882 5.43,-0.78 7.845,-0.892 13.326,0.298 4.188,2.82 8.078,6.83 13.46,7.66 3.5,0.14 7.068,-0.5 10.328,-1.78 4.271,-1.648 5.91,-1.688 9.842,-3.89 2.58,-0.65 4.56,-0.521 6.39,0.939 3.33,2.761 7.88,5.189 12.52,5.091 8.25,0.05 14.69,-6.07 22.4,-8.062 7.12,-1.07 14.36,-0.06 21.48,-1.188 3.89,-0.98 6.398,-4.461 7.738,-8.03 4.99,-1 10.352,-1.22 14.82,-3.9 4.72,-3.729 6.18,-10.51 4.521,-16.13 -2.66,-9.93 -10.432,-17.188 -14.95,-26.18 9.55,4.29 20.34,7.26 27.62,15.24 6.77,6.84 7.898,12.108 3.229,20.42 -5.08,9.46 -12.688,17.84 -22.27,22.858 -12.142,6.74 -25.65,10.32 -38.472,15.49 -17.64,6.92 -35.92,13.7 -55.14,13.66 -9.25,0.25 -18.5,-1.812 -26.81,-5.88 -8.45,-3.631 -16.03,-9.15 -24.86,-11.932 -12.59,-4.06 -24.42,-10.09 -36.2,-16.028 -4.76,-2.54 -8.032,-3.494 -16.08,-9.722 -8.048,-6.228 -11.309,-11.267 -11.309,-11.267 z"
   id="path28"
   inkscape:connector-curvature="0"
   style="fill:#fefefe" />
	<path
   d="m 392.91,514.81 c 2.8,-3.21 7.38,-4.34 11.07,-6.358 5.56,3.38 8.25,10.188 7.84,16.5 -0.07,2.56 -2.21,4.91 -4.88,4.58 -3.83,-0.11 -8.342,0.59 -11.562,-1.9 -2.248,-3.772 -3.298,-8.482 -2.468,-12.822 z"
   id="path30"
   inkscape:connector-curvature="0"
   style="fill:#fefefe" />
	<path
   d="m 250.37,512.51 c 3.91,-0.45 8.97,-1.14 11.78,2.29 2.57,3.71 1.5,8.65 0.35,12.68 -1.586,3.058 -5.89,4.33 -9.47,4.062 -5.27,-2.44 -8.52,-8.82 -6.85,-14.5 0.39,-2.152 1.99,-4.112 4.19,-4.532 z"
   id="path32"
   inkscape:connector-curvature="0"
   style="fill:#fefefe" />
	<path
   d="m 371.671,521.848 c 4.972,-2.75 6.561,-6.038 12.299,-6.878 0.812,6.312 5.222,11.222 7.17,17.13 0.892,2.432 0.062,5.54 -2.59,6.41 -6.77,2.86 -9.72,0.928 -13.841,-5.202 -0.425,-3.745 -2.788,-7.67 -3.038,-11.46 z"
   id="path34"
   inkscape:connector-curvature="0"
   style="fill:#fefefe" />
	<path
   d="m 272.54,516.6 c 5.82,0.41 11,-0.93 16.54,1.38 3.12,2.66 2.57,7.32 2.84,11.021 -0.23,2.87 0.49,6.72 -2.42,8.479 -3.3,2.142 -6.6,1.892 -10.31,1.132 -2.79,-0.642 -5.89,-1.91 -7.09,-4.71 -2.73,-5.522 -0.06,-11.592 0.44,-17.302 z"
   id="path36"
   inkscape:connector-curvature="0"
   style="fill:#fefefe" />
	<path
   d="m 306.43,519.63 c 6.09,-1.07 12.642,-0.26 17.98,2.99 7.5,5.25 6.68,18.09 -1.08,22.7 -8.46,4.89 -20.74,0.909 -24.64,-8.102 -1.99,-4.79 -1.48,-10.398 0.488,-15.108 1.842,-1.79 4.822,-1.881 7.252,-2.48 z"
   id="path38"
   inkscape:connector-curvature="0"
   style="fill:#fefefe" />
	<path
   d="m 343.55,520.93 c 5.29,-0.64 10.73,-1.159 16,-0.08 4.102,0.762 5.58,5.302 6.91,8.7 1.19,4.142 2.82,9.71 -1.01,12.98 -5.22,4.739 -13.15,7.41 -19.96,4.8 -3.562,-1.36 -5.23,-5.11 -6.602,-8.38 -2.08,-4.96 -2.81,-11.15 0.222,-15.88 0.85,-1.63 2.85,-1.77 4.44,-2.14 z"
   id="path40"
   inkscape:connector-curvature="0"
   style="fill:#fefefe" />
	<path
   d="m 402.354,387.57 c -8.761,-0.164 -29.258,-6.249 -46.59,-20.74 -4.459,-4.29 -7.858,-9.55 -11.198,-14.72 -2.462,-3.73 -1.962,-8.37 -1.23,-12.53 1.211,-6.84 1.439,-14.14 5.039,-20.28 3.211,-5.9 6.541,-11.89 11.432,-16.59 5.029,-5.37 12.818,-8.07 20.079,-6.74 13.84,2.66 26.271,10.71 35.471,21.24 5.59,6.44 8.159,14.79 10.25,22.89 1.711,5.63 -0.539,11.44 0.311,17.14 0.939,2.88 4.47,12.333 5.94,14.923 1.459,2.51 1.166,7.628 -3.188,12.337 -4.356,4.709 -17.555,3.233 -26.316,3.07 z"
   id="path42"
   inkscape:connector-curvature="0"
   style="fill:#050505" />
	<path
   d="m 386.643,322.107 c 9.031,1.298 18.042,6.483 22.052,16.753 1.791,4.89 2.721,10.25 1.989,15.44 -1.76,5.7 -7.641,9.32 -13.42,9.62 -7.391,0.59 -13.84,1.622 -21.14,-5.717 0.196,-1.688 -8.008,-14.806 -7.354,-21.379 0.654,-6.573 1.318,-9.724 5.897,-13.49 4.579,-3.766 9.103,-1.64 11.976,-1.227 z"
   id="path44"
   inkscape:connector-curvature="0"
   style="fill:#fefefe" />
	<path
   d="M 425.667,381.167"
   id="path46"
   inkscape:connector-curvature="0"
   style="fill:#050505" />
	<path
   d="m 249.62,351.456 c 0,-5.3 4.645,-12.053 9.945,-12.053 5.3,0 9.597,3.297 9.597,8.597 0,5.3 -4.297,10.597 -9.597,10.597 -5.3,0 -9.945,-1.841 -9.945,-7.141 z"
   id="path48"
   inkscape:connector-curvature="0"
   style="fill:#050505" />
	<path
   d="m 377.135,344.421 c 0,-5.3 4.297,-7.597 9.597,-7.597 5.301,0 9.42,6.119 9.42,11.419 0,5.3 -4.119,7.775 -9.42,7.775 -5.3,0 -9.597,-6.297 -9.597,-11.597 z"
   id="path50"
   inkscape:connector-curvature="0"
   style="fill:#050505" />
</g>
<g
   id="Layer_3"
   transform="translate(-46.097382,-96.032362)">
	<g
   id="g55">
		<path
   d="m 498.833,767.512 c -30.884,-11.05 -30.931,-26.069 -31.108,-35 -21.06,-5.971 -105.198,-31.433 -153.304,-47.493 -48.756,-16.275 -123.043,-43.56 -139.359,-49.573 -6.085,3.475 -22.394,11.078 -42.109,11.077 -9.399,-10e-4 -18.917,-1.543 -28.288,-4.584 -17.69,-5.741 -27.86,-10.077 -34.724,-27.081 -5.052,-12.517 -4.951,-23.508 -4.945,-23.97 0,0 0.329,-1.842 3.31,-3.166 2.981,-1.324 5.821,-1.898 5.821,-1.898 23.107,9.751 47.901,13.766 54.434,15.263 3.91,-2.527 12.746,-14.63 12.959,-19.322 -4.563,-4.123 -29.864,-16.888 -50.759,-24.42 0,0 -1.757,-0.588 -2.584,-4.065 -0.827,-3.477 0.373,-5.064 0.373,-5.064 0.816,-0.753 18.841,-15.777 46.032,-15.777 7.638,0 15.192,1.435 22.458,4.266 30.883,12.03 35.714,45.326 37.207,55.568 18.079,5.405 94.49,28.197 138.799,40.66 44.469,12.508 130.257,44.547 151.39,52.213 5.215,-6.027 19.182,-22.492 40.206,-22.492 8.094,0 16.796,1.57 25.864,4.671 24.997,8.544 32.87,22.636 35.073,32.953 2.384,11.171 -0.01,15.102 -0.161,15.487 0,0 0.144,1.487 -3.606,2.487 -3.75,1 -5.278,0.483 -5.278,0.483 -7.724,-3.905 -31.841,-9.577 -45.414,-9.577 -2.087,0 -3.844,0.264 -5.103,0.766 -2.652,2.034 -8.481,12.289 -9.204,16.052 3.781,5.487 24.313,14.786 44.122,19.728 0,0 2.771,0.415 3.877,2.549 2.22,4.287 -0.789,6.196 -0.789,6.196 -0.697,0.742 -17.399,18.187 -44.75,17.82 -7.61,-0.104 -12.752,-2.006 -20.44,-4.757 z m 34.74,-18.66 c -23.801,-8.54 -26.776,-15.427 -28.582,-19.531 -0.558,-1.269 -2.039,-4.637 4.149,-15.912 3.951,-7.198 6.821,-13.178 10.267,-14.705 3.014,-1.334 7.537,-0.453 11.711,-0.453 13.877,0 43.019,6.879 42.268,3.63 -2.505,-10.841 -11.693,-19.044 -27.313,-24.382 -7.65,-2.615 -14.86,-3.941 -21.433,-3.941 -21.424,0 -32.064,20.25 -32.403,20.815 l -2.587,4.471 -5.24,-1.917 c -0.512,-0.188 -19.199,-6.408 -51.219,-17.029 C 398.734,668.467 355.06,651.041 329.119,643.744 278.757,629.579 187.181,602.054 186.261,601.777 l -4.144,-1.256 -0.175,-3.87 c -0.058,-1.286 0.232,-37.845 -30.025,-49.632 -5.641,-2.198 -11.474,-3.313 -17.336,-3.313 -12.776,0 -22.412,2.627 -29.278,6.859 4.784,1.839 9.642,6.799 15.785,9.306 27.494,11.217 33.07,16.431 33.711,20.308 1.262,7.645 -8.857,20.232 -14.714,26.468 -3.573,3.807 -7.073,5.718 -10.697,5.838 -0.106,0.004 -0.221,0.812 -0.335,0.812 -2.179,0 -3.696,5.442 -33.11,-6.142 -6.233,-2.454 -12.33,-4.929 -17.181,-6.921 2.298,11.685 7.121,23.61 30.279,31.124 7.965,2.586 16.01,3.896 23.912,3.896 21.339,10e-4 37.203,-10.496 37.32,-10.577 l 2.952,-2.12 3.507,1.298 c 0.435,0.16 23.251,5.85 51.867,16.188 28.617,10.339 69.182,20.251 96.455,29.354 54.495,18.193 155.665,53.978 155.665,53.978 l -1.341,4.662 c -0.045,0.186 -7.635,18.021 24.065,29.363 6.216,2.225 9.951,3.884 15.974,3.964 11.996,0.161 21.564,-4.211 27.667,-8.095 -3.954,-1.183 -8.667,-2.68 -13.511,-4.417 z"
   id="path53"
   inkscape:connector-curvature="0"
   style="fill:#050505" />
	</g>
	<g
   id="g61">
		<path
   d="m 85.781,712.053 c 0,0 40.733,-10.954 53.575,-4.668 3.485,1.705 8.861,20.642 6.778,24.849 -7.353,14.846 -53.57,23.323 -53.57,23.323 0,0 12.477,31.084 57.92,17.468 45.442,-13.616 36.421,-48.089 36.421,-48.089 0,0 113.654,-31.462 163.142,-49.325 49.488,-17.861 134.986,-47.937 134.986,-47.937 0,0 26.455,27.908 61.485,18.982 35.03,-8.928 37.397,-44.101 37.397,-44.101 0,0 -52.012,15.34 -57.707,10.813 -5.696,-4.527 -11.009,-25.183 -6.254,-28.966 4.757,-3.785 60.634,-14.622 60.634,-14.622 0,0 -27.34,-31.658 -64.855,-19.779 -37.517,11.877 -35.377,43.13 -35.377,43.13 0,0 -90.293,24.623 -146.158,41.795 -55.864,17.173 -157.442,53.816 -157.442,53.816 0,0 -16.842,-25.991 -55.978,-14.865 -39.134,11.126 -34.997,38.176 -34.997,38.176 z"
   id="path57"
   inkscape:connector-curvature="0"
   style="fill:#ffffff" />
		<path
   d="m 587.492,598.281 c -2.787,-1.652 -5.521,-0.899 -5.521,-0.899 -10.724,3.161 -40.874,11.368 -51.476,11.368 -0.312,0 -0.563,-0.008 -0.76,-0.019 -3.114,-3.65 -6.461,-16.35 -5.315,-20.361 5.902,-2.473 33.188,-8.551 57.484,-13.264 0,0 2.813,-0.743 3.936,-3.458 1.123,-2.715 -0.362,-5.182 -0.362,-5.182 -0.868,-1.005 -21.595,-24.587 -52.796,-24.587 -6.367,0 -12.767,1.005 -19.021,2.985 -31.414,9.944 -35.113,32.489 -38.049,42.296 -0.709,0.438 -1.314,1.051 -1.723,1.843 -19.118,5.246 -93.624,25.796 -141.777,40.6 -48.621,14.946 -132.68,44.927 -153.165,52.271 -4.842,-4.934 -19.161,-16.821 -37.292,-16.821 -7.071,0 -14.749,1.164 -22.82,3.458 -22.513,6.4 -33.04,19.893 -37.909,30.086 -5.227,10.943 7.407,18.631 7.407,18.631 8.723,-3.336 30.421,-5.526 43.569,-5.526 1.845,0 2.989,0.185 3.664,0.362 2.231,3.457 5.228,14.959 4.636,18.112 -4.445,8.185 -30.751,17.19 -48.664,19.821 0,0 -2.228,0.752 -4.228,3.002 -2,2.25 -0.724,4.49 -0.724,4.49 3.746,9.136 16.837,24.454 43.35,24.457 7.047,10e-4 14.646,-1.205 22.587,-3.585 25.939,-7.772 34.928,-24.001 38.739,-34.017 2.313,-6.077 2.668,-11.609 2.504,-15.415 22.487,-6.287 115.423,-36.488 158.681,-52.102 42.638,-15.389 112.351,-36.44 130.508,-42.599 0.664,0.637 1.436,1.009 2.239,1.154 7.738,6.201 24.854,18.632 46.24,18.634 h 0.006 c 5.606,0 11.251,-0.714 16.78,-2.122 38.769,-9.881 41.734,-47.423 41.841,-49.015 10e-4,0.003 0.218,-2.945 -2.569,-4.598 z M 148.446,767.688 c -6.624,1.984 -12.852,2.992 -18.509,2.991 -15.265,-0.002 -23.172,-5.573 -27.628,-11.107 4.546,-0.903 9.643,-4.041 15.782,-5.725 18.912,-5.191 29.99,-11.521 33.868,-19.349 1.993,-4.025 0.584,-11.45 -0.949,-16.972 -3.493,-12.585 -7.187,-14.393 -8.577,-15.073 -2.776,-1.358 -6.221,-2.02 -10.531,-2.02 -12.309,0 -26.647,-1.057 -38.167,2.746 2.88,-9.655 6.481,-17.539 28.986,-23.938 6.814,-1.937 13.184,-2.918 18.934,-2.918 12.597,0 26.479,12.639 27.028,13.367 6.567,8.719 10.738,31.415 10.738,31.415 l 1.195,4.742 c 0.016,0.217 0.037,0.437 0.051,0.652 0.041,0.622 0.174,1.183 0.378,1.685 0.878,6.904 0.995,29.437 -32.599,39.504 z m 199.2,-101.295 c -42.935,15.497 -135.777,44.773 -157.852,51.678 -1.227,-8.638 -3.57,-17.474 -7.467,-25.25 17.6,-6.316 104.396,-37.337 153.956,-52.571 48.199,-14.815 119.425,-33.896 137.138,-38.612 0.472,7.616 1.88,15.332 4.485,22.456 -18.913,5.794 -88.068,27.071 -130.26,42.299 z m 197.17,-24.978 c -4.423,1.127 -8.926,1.698 -13.381,1.697 -23.983,-0.002 -41.646,-18.907 -41.812,-19.071 l -1.681,-1.667 c -3.971,-9.724 -5.069,-20.97 -4.609,-31.207 0.027,-0.606 -0.037,-1.155 -0.175,-1.647 2.729,-9.646 10.747,-26.818 34.646,-34.384 4.921,-1.558 9.926,-2.349 14.877,-2.349 15.738,0 28.535,7.849 35.965,13.787 -5.118,1.043 -11.552,2.38 -18.065,3.804 -30.622,6.691 -33.2,8.741 -34.74,9.966 -2.614,2.082 -3.885,5.427 -3.883,10.227 0.003,7.851 3.861,21.867 10.139,26.855 2.515,1.999 5.998,2.23 8.398,2.23 10.506,0 32.658,-5.613 45.651,-9.174 -2.852,9.861 -10.598,25.649 -31.33,30.933 z"
   id="path59"
   inkscape:connector-curvature="0" />
	</g>
	<path
   d="m 190,583.833 c -0.017,-6.448 -10.017,-6.449 -10,0 0.04,15.468 1.794,32.747 -13.523,41.683 -5.566,3.247 -0.535,11.891 5.047,8.635 8.319,-4.853 13.937,-11.898 16.603,-21.16 2.694,-9.357 1.898,-19.55 1.873,-29.158 z"
   id="path63"
   inkscape:connector-curvature="0" />
	<path
   d="m 481.059,689.156 c -4.105,12.593 -10.546,24.311 -13.334,37.334 -1.347,6.288 11.646,3.188 12.995,-3.117 1.672,-7.812 1.068,-7.67 3.844,-14.459 2.157,-5.275 3.922,-7.385 6.268,-12.111 2.874,-5.793 -7.783,-13.75 -9.773,-7.647 z"
   id="path65"
   inkscape:connector-curvature="0" />
</g>
<path
   style="fill:#ffffff;fill-opacity:1;stroke:none;stroke-width:0.50847459;stroke-opacity:1"
   d="m 206.65222,551.67262 c -6.29237,-1.95471 -15.1017,-4.82748 -19.57627,-6.38394 -14.5271,-5.0532 -33.36649,-11.18386 -41.94916,-13.65098 -4.6144,-1.32643 -8.47199,-2.4828 -8.57241,-2.56971 -0.10043,-0.0869 0.3136,-0.85486 0.92007,-1.70656 2.88522,-4.05193 6.12692,-13.48099 6.12692,-17.82126 0,-0.86247 0.30488,-1.68512 0.67752,-1.82811 0.37264,-0.143 10.26882,2.59574 21.99153,6.08607 22.32311,6.64652 79.78467,23.58104 88.30553,26.02456 2.72669,0.78193 4.9562,1.55065 4.95447,1.70826 -0.004,0.31726 -40.1575,13.78065 -40.9444,13.72841 -0.27122,-0.018 -5.64143,-1.63204 -11.9338,-3.58674 z"
   id="path76"
   inkscape:connector-curvature="0" /><path
   style="fill:#ffffff;fill-opacity:1;stroke:none;stroke-width:0.50847459;stroke-opacity:1"
   d="m 78.008148,538.45042 c -8.05877,-0.92675 -20.29851,-4.72231 -26.422059,-8.19352 -7.165013,-4.06157 -12.22665,-9.07575 -15.020874,-14.88006 -1.778302,-3.69397 -3.670662,-9.71691 -3.200653,-10.18692 0.148228,-0.14822 4.933759,1.58347 10.634512,3.84823 22.953744,9.11889 32.626844,11.25365 38.585344,8.51543 0.97882,-0.44981 2.61292,-1.07596 3.63135,-1.39142 4.32211,-1.33882 8.98929,-5.69852 15.319032,-14.30979 5.44232,-7.40399 8.04951,-13.84374 7.27538,-17.97018 -0.88672,-4.72665 -8.61468,-9.4433 -32.581692,-19.88577 -3.76499,-1.64042 -13.90866,-7.71993 -15.72551,-9.42494 -1.12197,-1.05291 9.41029,-4.70143 16.74246,-5.79981 23.401172,-3.50558 41.975272,5.0969 51.589402,23.89331 4.67262,9.13534 5.81534,16.75956 4.64884,31.01695 -1.03852,12.69322 -3.92483,18.82661 -11.49368,24.42405 -2.0968,1.55065 -3.81236,3.01516 -3.81236,3.25446 0,0.72053 -8.53789,3.90113 -14.23729,5.30378 -9.248882,2.2762 -17.017952,2.81133 -25.932202,1.7862 z"
   id="path78"
   inkscape:connector-curvature="0" /><path
   style="fill:#ffffff;fill-opacity:1;stroke:none;stroke-width:0.50847459;stroke-opacity:1"
   d=""
   id="path80"
   inkscape:connector-curvature="0" /><path
   style="fill:#ffffff;fill-opacity:1;stroke:none;stroke-width:0.50847459;stroke-opacity:1"
   d="m 400.88951,615.24573 c -17.65487,-6.21834 -48.96337,-17.11405 -90.12712,-31.36525 -3.00636,-1.04082 -5.4661,-2.01863 -5.4661,-2.1729 0,-0.37771 3.59566,-1.66427 22.0025,-7.8727 l 15.64657,-5.27741 15.62462,5.61578 c 8.59353,3.08868 28.66698,9.97261 44.60766,15.29763 15.94068,5.32501 29.04573,9.73393 29.12235,9.7976 0.0766,0.0637 -1.77937,5.0107 -4.12439,10.99342 -2.34502,5.98271 -4.40264,11.27808 -4.57248,11.76749 -0.16985,0.4894 -0.4876,0.87587 -0.70613,0.85881 -0.21852,-0.0171 -10.12189,-3.45617 -22.00748,-7.64247 z"
   id="path82"
   inkscape:connector-curvature="0" /><path
   style="fill:#ffffff;fill-opacity:1;stroke:none;stroke-width:0.50847459;stroke-opacity:1"
   d="m 468.26239,664.63436 c -4.02916,-0.88531 -14.33526,-4.76724 -19.07526,-7.18495 -2.66089,-1.35722 -6.2075,-3.56501 -7.88136,-4.9062 -3.31343,-2.65489 -7.02051,-7.70696 -7.85199,-10.70084 -0.75905,-2.73307 -0.63961,-7.59801 0.25861,-10.53332 0.42789,-1.39831 1.31797,-5.0779 1.97795,-8.17688 1.47117,-6.90795 3.19127,-11.11546 8.35271,-20.43138 6.38581,-11.52579 12.32266,-17.77557 20.60444,-21.69048 5.11559,-2.41821 8.38208,-3.09167 14.80134,-3.0516 6.18902,0.0386 11.67058,1.00331 18.94882,3.33474 14.84819,4.7563 23.95592,11.84995 27.66761,21.54919 1.7337,4.53043 2.46458,4.47492 -19.1588,1.45507 -14.83025,-2.07114 -29.26763,-3.03916 -32.47037,-2.17713 -2.98442,0.80328 -5.12567,3.36753 -9.64287,11.54779 -8.19369,14.8381 -8.43692,19.60409 -1.35439,26.53898 5.16677,5.05907 12.67819,8.86017 27.6984,14.01659 l 9.14602,3.13981 -1.77314,1.08369 c -2.74461,1.67741 -8.81741,4.08841 -13.12462,5.21069 -4.36527,1.1374 -13.91238,1.68171 -17.1231,0.97623 z"
   id="path84"
   inkscape:connector-curvature="0" /></svg>