<?xml version="1.0" encoding="UTF-8" ?>
<!DOCTYPE svg PUBLIC "-//W3C//DTD SVG 1.1//EN" "http://www.w3.org/Graphics/SVG/1.1/DTD/svg11.dtd">
<svg width="681pt" height="960pt" viewBox="0 0 681 960" version="1.1" xmlns="http://www.w3.org/2000/svg">
<path fill="#fefefe" d=" M 0.00 0.00 L 681.00 0.00 L 681.00 960.00 L 0.00 960.00 L 0.00 0.00 Z" />
<path fill="#050505" d=" M 468.01 123.72 C 488.64 123.22 509.38 121.69 529.42 116.43 C 529.50 118.88 529.34 121.65 527.27 123.33 C 523.68 125.80 519.16 126.22 515.37 128.28 C 513.59 129.51 512.80 131.72 511.10 133.06 C 508.38 135.19 505.18 136.56 502.03 137.92 C 504.46 140.86 507.92 142.71 510.36 145.64 C 513.49 149.35 515.93 153.98 515.68 158.97 C 516.04 164.35 509.61 167.44 510.18 172.81 C 512.10 178.21 516.69 182.38 517.92 188.09 C 519.71 197.25 521.66 206.57 520.54 215.94 C 519.82 220.53 516.92 224.42 513.47 227.37 C 513.38 229.02 513.30 230.67 513.20 232.33 C 509.56 232.08 507.96 228.55 505.79 226.18 C 504.64 228.95 505.08 232.02 504.34 234.89 C 500.16 234.33 497.20 231.16 493.52 229.50 C 490.76 228.13 488.31 231.61 485.70 230.35 C 482.51 227.13 483.53 222.12 482.33 218.08 C 480.97 218.32 479.62 218.57 478.27 218.77 C 474.72 213.39 475.61 206.73 475.38 200.63 C 476.62 200.31 477.86 199.97 479.10 199.63 C 477.94 198.77 476.73 197.95 475.55 197.13 C 475.78 189.19 480.92 182.65 482.27 175.01 C 483.09 169.20 478.13 165.19 474.48 161.52 C 471.26 158.54 469.32 154.35 469.40 149.94 C 465.12 151.25 460.90 152.76 456.52 153.67 C 456.06 154.90 455.62 156.14 455.19 157.37 C 442.03 160.83 428.63 163.39 415.49 166.84 C 434.40 181.95 453.40 197.58 467.67 217.36 C 479.46 233.71 487.36 252.92 489.80 272.97 C 492.44 291.04 492.01 310.36 484.08 327.14 C 480.72 334.32 474.96 340.35 473.01 348.17 C 471.43 353.97 473.44 361.04 478.74 364.26 C 485.96 368.90 491.64 375.53 496.36 382.61 C 501.23 389.94 502.72 399.16 501.25 407.76 C 500.47 411.52 498.69 415.20 495.70 417.70 C 485.40 425.90 474.04 432.63 463.56 440.58 C 459.75 443.46 455.63 445.92 451.88 448.88 C 447.72 452.06 447.91 457.80 446.26 462.32 C 443.10 471.69 435.62 479.76 435.67 490.07 C 437.04 498.20 445.63 501.78 449.63 508.38 C 454.66 515.13 453.72 524.19 451.74 531.86 C 448.63 543.53 439.11 552.13 429.05 558.08 C 418.21 564.38 406.47 568.91 395.19 574.34 C 380.31 581.28 364.66 586.48 348.61 589.91 C 330.90 594.02 311.84 593.82 294.75 587.20 C 282.97 582.85 272.05 576.59 260.68 571.32 C 258.56 570.60 257.86 568.39 256.98 566.58 C 254.04 566.85 251.01 566.90 248.23 565.79 C 234.59 560.61 221.02 554.59 209.49 545.50 C 202.68 539.71 196.32 532.61 194.27 523.66 C 192.86 519.08 194.66 514.42 196.29 510.17 C 197.98 506.00 199.10 501.49 201.88 497.87 C 204.33 494.40 207.66 491.49 209.30 487.50 C 210.27 483.71 210.22 479.38 207.97 476.04 C 205.97 472.84 204.25 469.48 203.04 465.91 C 203.74 465.17 204.45 464.43 205.16 463.70 C 199.38 459.56 200.49 451.21 195.59 446.44 C 191.65 442.24 186.05 440.13 182.11 435.93 C 177.70 431.24 174.07 425.88 170.45 420.57 C 165.14 412.45 159.60 404.01 157.84 394.30 C 156.57 388.05 157.75 381.38 160.96 375.89 C 163.50 371.59 167.97 368.51 169.50 363.62 C 170.76 358.34 167.04 353.89 165.94 348.98 C 164.60 342.42 164.41 335.68 164.65 329.01 C 164.82 324.45 166.54 320.18 167.55 315.79 C 168.60 311.42 168.27 306.90 168.89 302.48 C 171.57 282.73 179.16 264.07 182.53 244.45 C 155.96 243.68 132.11 257.11 107.26 264.40 C 104.31 265.57 101.26 264.09 98.25 264.38 C 94.23 265.71 90.77 270.07 86.16 268.08 C 87.07 263.43 90.39 259.84 93.99 257.00 C 98.53 253.50 103.08 249.97 107.95 246.93 C 126.76 235.24 143.47 220.15 163.66 210.73 C 172.73 206.92 181.63 202.72 190.44 198.33 C 209.42 188.89 228.63 179.92 247.75 170.78 C 255.42 167.23 263.30 164.15 271.22 161.20 C 279.51 158.06 286.65 152.40 295.15 149.76 C 298.67 148.57 302.64 150.95 305.97 148.87 C 309.95 146.77 313.69 144.15 318.02 142.79 C 329.82 139.32 341.94 137.09 354.10 135.39 C 364.54 133.95 375.23 131.93 385.73 134.09 C 389.76 134.75 394.11 135.69 398.03 134.00 C 420.37 125.70 444.50 125.22 468.01 123.72 Z" />
<path fill="#fefefe" d=" M 378.64 243.95 C 397.72 239.35 417.70 239.43 437.03 242.48 C 444.41 243.63 452.07 244.61 458.76 248.16 C 464.79 251.36 467.60 257.96 469.94 264.01 C 474.21 275.55 478.41 287.59 477.88 300.07 C 477.12 311.65 470.59 321.59 465.66 331.75 C 461.70 339.46 455.21 346.87 455.67 356.00 C 457.57 360.78 461.54 364.37 464.54 368.47 C 470.48 375.85 477.31 382.56 482.26 390.69 C 484.34 394.23 484.91 399.59 481.58 402.56 C 477.77 406.80 472.59 409.54 468.97 413.98 C 461.75 422.27 455.61 432.42 445.15 437.01 C 437.55 440.51 428.84 439.30 421.17 436.68 C 410.89 432.92 401.62 426.98 391.81 422.20 C 387.49 420.41 382.31 418.57 377.81 420.82 C 375.91 422.03 375.74 424.45 376.52 426.39 C 378.95 433.07 384.37 437.99 387.96 443.99 C 388.89 445.23 388.84 446.82 388.98 448.30 C 385.64 448.20 382.78 445.76 379.37 446.22 C 374.49 446.26 371.39 452.15 366.24 450.67 C 358.97 448.46 352.03 443.20 344.04 444.98 C 340.44 445.38 338.04 449.46 334.27 448.61 C 326.81 447.26 320.86 441.01 312.99 441.29 C 306.59 441.11 300.96 447.11 294.49 444.65 C 289.69 443.35 285.18 440.06 280.05 440.66 C 275.70 440.97 276.07 447.41 271.80 447.65 C 269.43 448.22 267.67 446.21 265.75 445.23 C 263.29 443.23 260.00 445.24 257.35 443.74 C 257.29 437.38 261.59 432.11 262.45 425.96 C 262.69 423.67 261.80 420.22 258.98 420.26 C 254.06 419.68 249.56 422.30 245.26 424.31 C 235.47 429.91 224.43 433.88 213.09 434.25 C 199.90 432.98 189.43 423.40 181.43 413.55 C 176.77 407.93 172.11 401.53 171.63 393.99 C 171.42 389.65 175.00 386.59 177.55 383.56 C 181.27 379.99 182.27 374.56 186.03 371.03 C 194.52 362.31 203.83 353.53 207.79 341.68 C 208.89 336.17 208.12 330.48 207.45 324.96 C 206.48 318.51 201.63 312.06 194.99 310.86 C 190.58 310.88 189.54 316.34 190.51 319.74 C 193.37 329.65 191.77 340.10 190.10 350.08 C 190.43 350.36 191.10 350.91 191.44 351.18 C 187.99 351.27 184.41 352.49 181.14 350.84 C 182.24 346.54 185.14 342.66 184.61 338.02 C 185.12 332.69 181.44 327.16 184.33 322.14 C 187.41 315.76 185.88 308.38 188.07 301.78 C 190.43 296.61 194.93 292.76 199.48 289.53 C 211.76 281.98 224.96 275.68 239.02 272.24 C 247.85 270.15 256.99 269.90 266.03 270.27 C 276.28 270.65 286.55 272.67 295.89 277.01 C 297.86 277.94 299.62 279.28 301.08 280.90 C 306.29 287.28 315.29 288.73 323.07 288.03 C 329.32 287.17 335.87 285.86 341.03 282.00 C 343.64 280.16 344.74 277.06 346.41 274.47 C 352.37 265.04 360.05 256.78 368.55 249.59 C 371.60 247.25 374.88 245.00 378.64 243.95 Z" />
<path fill="#050505" d=" M 464.54 292.63 C 465.91 291.92 467.89 291.60 469.06 292.87 C 471.17 295.59 470.86 299.35 470.24 302.53 C 467.63 309.80 461.57 315.19 455.28 319.35 C 454.80 323.34 452.58 326.79 451.50 330.61 C 448.84 333.09 443.36 330.55 442.93 326.88 C 441.36 318.84 443.75 310.23 448.83 303.86 C 452.91 298.69 458.81 295.58 464.54 292.63 Z" />
<path fill="#050505" d=" M 264.46 300.71 C 271.72 299.38 279.51 302.08 284.54 307.45 C 289.43 312.15 292.76 318.14 295.97 324.04 C 299.57 330.18 299.80 337.48 301.01 344.32 C 301.74 348.48 302.24 353.12 299.78 356.85 C 296.44 362.02 293.04 367.28 288.58 371.57 C 275.40 382.59 259.42 391.20 241.99 392.31 C 233.60 392.58 225.12 392.68 216.84 391.10 C 213.50 390.17 209.13 388.08 209.34 384.01 C 208.96 381.37 211.85 380.03 212.67 377.80 C 213.06 375.06 212.23 372.06 213.69 369.55 C 215.16 366.96 217.49 364.86 218.43 361.98 C 219.28 356.28 217.03 350.47 218.74 344.84 C 220.83 336.74 223.40 328.39 228.99 321.95 C 238.19 311.42 250.62 303.37 264.46 300.71 Z" />
<path fill="#050505" d=" M 378.37 309.53 C 384.56 308.11 391.24 308.31 397.15 310.77 C 403.75 313.24 408.88 318.47 412.80 324.18 C 417.38 331.86 422.06 339.51 427.16 346.87 C 429.29 350.02 432.13 352.59 435.20 354.83 C 438.00 356.78 437.63 360.56 438.73 363.44 C 441.33 368.64 446.38 372.48 447.77 378.30 C 448.78 381.88 447.83 386.50 444.36 388.44 C 438.83 391.55 432.15 390.98 426.37 393.42 C 417.01 397.11 407.50 402.35 397.07 400.60 C 385.78 398.43 375.50 392.50 366.62 385.36 C 360.07 379.68 356.91 371.11 355.43 362.78 C 354.56 353.28 356.82 343.90 358.99 334.73 C 360.43 328.13 363.52 321.94 367.63 316.60 C 370.30 313.15 374.05 310.43 378.37 309.53 Z" />
<path fill="#fefefe" d=" M 235.65 343.60 C 239.66 333.33 250.38 327.02 260.97 325.74 C 263.79 325.57 267.52 324.93 269.38 327.67 C 271.27 332.02 272.40 336.98 276.29 340.12 C 275.44 343.96 274.34 348.26 277.08 351.64 C 276.42 351.86 275.09 352.31 274.43 352.53 C 273.79 356.89 269.39 359.20 268.53 363.49 C 262.68 368.48 254.47 369.25 247.08 368.66 C 241.30 368.36 235.42 364.74 233.66 359.04 C 232.93 353.85 233.86 348.49 235.65 343.60 Z" />
<path fill="#fefefe" d=" M 370.32 326.27 C 378.30 326.05 386.12 327.79 394.04 328.39 C 397.11 328.64 400.54 327.85 403.20 329.84 C 409.65 333.85 415.09 340.34 416.37 347.98 C 417.22 352.71 413.56 356.58 413.11 361.15 C 412.06 366.72 412.51 373.77 406.89 377.04 C 399.22 380.62 390.34 379.56 382.21 378.50 C 380.38 378.48 379.67 376.56 378.77 375.30 C 375.51 370.10 373.43 364.22 369.74 359.29 C 368.71 357.69 368.62 355.75 368.38 353.93 C 367.10 344.73 366.86 335.04 370.32 326.27 Z" />
<path fill="#050505" d=" M 245.05 349.88 C 248.60 346.72 251.38 342.36 256.07 340.80 C 262.83 338.65 268.45 346.84 267.42 352.90 C 265.55 355.84 263.86 358.90 261.85 361.75 C 260.33 364.17 257.06 364.08 254.63 363.40 C 249.66 360.40 247.87 354.60 245.05 349.88 Z" />
<path fill="#050505" d=" M 390.38 346.40 C 394.91 345.01 400.39 344.67 404.39 347.65 C 407.67 351.00 405.65 355.87 405.61 359.95 C 405.86 363.04 402.91 364.89 400.25 365.46 C 394.98 366.77 389.63 369.19 384.10 368.12 C 380.99 367.27 379.69 363.96 379.59 361.02 C 379.38 357.91 379.20 354.07 381.94 351.94 C 384.54 349.83 387.20 347.59 390.38 346.40 Z" />
<path fill="#050505" d=" M 327.33 367.11 C 330.63 366.32 334.29 366.83 336.94 369.04 C 342.36 373.89 343.63 382.03 349.74 386.25 C 355.02 390.22 361.30 393.75 363.88 400.21 C 365.62 405.41 365.27 411.54 362.23 416.22 C 357.26 423.79 347.92 428.03 338.95 427.20 C 334.88 426.92 332.14 422.74 327.95 423.05 C 323.26 423.38 319.87 427.09 315.61 428.63 C 310.09 431.11 303.39 428.86 299.84 424.15 C 293.07 415.45 292.69 402.23 299.25 393.31 C 305.29 384.82 310.67 375.41 319.46 369.40 C 321.72 367.69 324.65 367.59 327.33 367.11 Z" />
<path fill="#fefefe" d=" M 394.01 433.21 C 408.80 438.53 422.11 447.99 437.92 450.42 C 437.04 456.91 435.05 463.22 432.07 469.05 C 429.60 473.77 427.67 479.01 423.59 482.64 C 418.67 484.08 413.29 481.27 411.24 476.66 C 407.94 469.46 407.74 461.29 404.86 453.93 C 401.99 446.64 396.87 440.50 394.01 433.21 Z" />
<path fill="#fefefe" d=" M 223.98 443.63 C 228.29 443.54 232.56 442.52 236.87 442.72 C 241.60 444.44 238.66 450.32 237.69 453.73 C 234.63 460.18 235.57 467.59 233.10 474.17 C 232.28 477.46 227.95 476.92 226.03 474.94 C 222.50 471.60 220.75 466.92 217.91 463.05 C 214.85 458.64 210.22 453.50 212.85 447.77 C 214.63 447.55 216.50 447.71 218.22 447.13 C 220.04 445.80 221.40 443.39 223.98 443.63 Z" />
<path fill="#fefefe" d=" M 317.41 453.29 C 320.43 451.60 323.89 453.81 325.54 456.39 C 327.81 460.54 327.65 465.45 327.34 470.04 C 326.69 475.21 325.09 480.53 321.41 484.39 C 317.95 487.97 312.03 487.56 308.19 484.81 C 300.99 479.70 299.10 468.35 304.18 461.20 C 308.13 457.89 312.64 455.24 317.41 453.29 Z" />
<path fill="#fefefe" d=" M 350.45 453.65 C 358.41 451.63 366.96 457.89 367.56 466.06 C 367.94 473.74 367.51 481.99 364.06 488.97 C 359.27 491.89 353.26 490.36 348.27 488.76 C 344.45 487.65 341.61 484.38 340.86 480.51 C 339.90 474.49 338.90 468.15 340.95 462.24 C 342.66 458.19 346.21 454.89 350.45 453.65 Z" />
<path fill="#fefefe" d=" M 282.24 455.40 C 286.44 454.27 291.17 452.54 295.32 454.76 C 295.99 455.83 296.52 456.98 296.89 458.21 C 295.70 458.66 294.50 459.10 293.30 459.53 C 292.26 464.83 292.57 470.73 296.07 475.11 C 292.82 476.59 292.34 480.34 291.01 483.27 C 284.95 481.74 278.15 483.59 272.54 480.40 C 268.36 476.63 269.72 470.29 271.96 465.82 C 274.22 461.50 277.16 456.64 282.24 455.40 Z" />
<path fill="#fefefe" d=" M 382.42 458.48 C 386.18 456.74 391.22 457.97 393.33 461.67 C 396.98 467.42 396.79 474.77 394.94 481.12 C 393.86 484.24 392.27 487.53 389.28 489.23 C 385.29 490.67 380.71 489.01 378.50 485.42 C 374.43 479.13 373.30 470.56 376.77 463.75 C 378.07 461.51 379.89 459.34 382.42 458.48 Z" />
<path fill="#fefefe" d=" M 251.79 465.45 C 253.24 461.40 258.54 458.41 262.70 460.13 C 263.06 464.84 261.65 469.85 263.90 474.27 C 264.84 476.74 266.77 479.57 265.24 482.21 C 261.97 485.24 257.23 486.28 252.89 486.45 C 252.58 486.17 251.94 485.60 251.62 485.31 C 250.28 478.78 250.60 471.97 251.79 465.45 Z" />
<path fill="#fefefe" d=" M 230.62 492.64 C 233.69 490.87 238.22 488.83 241.08 492.10 C 242.42 495.23 242.96 498.66 243.41 502.03 C 243.93 504.20 241.59 505.13 240.33 506.40 C 236.37 509.08 235.89 514.42 236.49 518.76 C 237.99 527.21 243.77 534.92 251.67 538.37 C 254.43 539.39 257.81 540.07 260.47 538.42 C 264.22 535.08 264.05 529.54 267.07 525.72 C 267.39 530.98 266.52 536.76 269.63 541.41 C 272.04 545.72 277.36 547.29 282.02 546.58 C 287.45 545.80 293.00 544.40 298.48 545.59 C 302.67 548.41 305.56 553.42 310.94 554.25 C 314.44 554.39 318.01 553.75 321.27 552.47 C 325.54 550.82 328.18 546.78 332.11 544.58 C 334.69 543.93 336.67 546.06 338.50 547.52 C 341.83 550.28 345.38 553.71 350.02 553.61 C 358.27 553.66 364.71 547.54 372.42 545.55 C 379.54 544.48 386.78 546.49 393.90 545.36 C 397.79 544.38 400.30 540.90 401.64 537.33 C 406.63 536.33 411.99 536.11 416.46 533.43 C 421.18 529.70 422.64 522.92 420.98 517.30 C 418.32 507.37 410.55 500.11 406.03 491.12 C 415.58 495.41 426.37 498.38 433.65 506.36 C 440.42 513.20 441.55 524.47 436.88 532.78 C 431.80 542.24 424.19 550.62 414.61 555.64 C 402.47 562.38 388.96 565.96 376.14 571.13 C 358.50 578.05 340.22 584.83 321.00 584.79 C 311.75 585.04 302.50 582.98 294.19 578.91 C 285.74 575.28 278.16 569.76 269.33 566.98 C 256.74 562.92 244.91 556.89 233.13 550.95 C 228.37 548.41 223.60 545.89 219.18 542.79 C 217.05 541.23 214.49 540.48 211.89 540.24 C 211.20 534.09 205.57 530.05 204.74 523.96 C 203.96 516.94 206.71 509.68 211.93 504.92 C 217.31 499.66 224.28 496.54 230.62 492.64 Z" />
<path fill="#050505" d=" M 548.84 505.89 C 555.96 504.53 562.86 502.08 570.11 501.42 C 576.64 500.92 583.29 502.02 589.27 504.71 C 595.96 507.74 602.64 511.01 608.43 515.59 C 610.81 517.68 613.36 519.88 614.42 522.98 C 615.08 525.75 612.63 528.76 609.84 528.96 C 606.07 528.84 603.79 532.26 600.60 533.69 C 594.12 536.84 587.16 538.87 580.44 541.42 C 574.78 543.59 568.59 545.09 563.92 549.15 C 561.52 552.36 563.03 556.56 564.13 559.97 C 566.24 564.98 568.87 570.26 573.52 573.34 C 581.98 575.45 589.69 570.70 596.74 566.75 C 607.36 561.75 618.54 557.78 630.03 555.31 C 632.87 555.28 637.53 553.87 638.40 557.74 C 639.55 561.92 638.81 566.35 638.30 570.58 C 636.53 580.30 634.19 590.28 628.59 598.60 C 618.78 612.74 603.40 623.59 586.14 625.96 C 580.57 626.99 574.93 628.22 569.24 627.58 C 566.67 626.78 564.67 624.71 562.03 624.07 C 555.94 622.59 549.65 622.13 543.61 620.45 C 538.96 619.08 533.80 618.47 529.18 620.25 C 513.62 626.72 497.40 631.66 482.40 639.42 C 477.80 641.82 472.55 642.67 468.11 645.43 C 468.39 646.49 468.39 647.83 469.52 648.43 C 472.75 650.68 476.64 651.66 480.36 652.79 C 489.36 655.08 498.06 658.39 506.80 661.52 C 520.66 666.44 534.33 671.98 547.47 678.60 C 547.47 680.50 547.51 683.09 549.97 683.34 C 552.31 683.01 554.60 682.36 556.95 681.99 C 556.21 681.03 555.46 680.08 554.73 679.14 C 559.21 676.81 562.00 672.43 565.92 669.39 C 573.60 672.34 581.22 668.24 588.68 666.65 C 592.79 665.48 597.13 665.43 601.35 666.03 C 608.03 666.71 614.92 666.60 621.40 668.59 C 626.20 670.87 629.30 675.51 632.11 679.84 C 636.37 687.18 640.45 695.34 639.79 704.07 C 639.64 706.62 639.21 709.15 638.81 711.68 C 636.55 711.65 634.28 711.59 632.04 711.67 C 633.35 713.56 634.93 715.26 636.43 717.02 C 635.92 718.07 635.38 719.11 634.79 720.13 C 631.09 721.55 627.38 719.47 624.08 717.96 C 618.57 715.43 613.63 711.58 607.64 710.21 C 604.17 709.39 600.71 708.31 597.88 706.06 C 591.99 708.29 587.67 713.60 585.63 719.44 C 585.15 722.00 584.15 725.51 586.76 727.28 C 597.68 736.39 611.80 739.95 623.79 747.28 C 626.27 748.97 629.16 750.87 629.92 753.99 C 628.64 758.91 623.10 760.40 618.93 762.03 C 610.94 764.37 603.61 768.74 595.36 770.20 C 575.47 772.60 554.14 765.42 541.02 749.98 C 538.98 747.36 536.85 744.67 535.81 741.48 C 534.55 736.43 534.62 730.88 531.57 726.46 C 528.28 726.11 524.94 725.94 521.72 725.14 C 494.35 716.06 466.52 708.49 438.97 699.99 C 423.70 695.58 408.47 691.05 393.19 686.69 C 384.45 684.20 376.42 678.19 366.93 679.31 C 354.03 680.32 342.17 686.18 330.76 691.86 C 296.65 709.82 258.33 716.80 222.47 730.22 C 222.94 729.03 223.35 727.82 223.70 726.60 C 218.89 725.50 214.11 728.60 213.44 733.51 C 207.24 736.92 199.36 734.18 193.54 738.52 C 189.34 742.57 188.56 748.75 185.53 753.56 C 182.82 757.74 180.29 762.19 176.47 765.48 C 173.28 767.64 169.25 768.00 165.97 770.01 C 162.30 772.26 159.08 775.22 155.19 777.15 C 141.93 784.74 125.61 785.83 111.00 782.00 C 101.00 779.33 92.97 772.35 86.04 764.98 C 83.70 762.54 78.23 760.92 79.56 756.67 C 82.49 754.08 86.46 753.33 89.98 751.88 C 100.36 747.62 111.46 745.00 121.20 739.28 C 123.56 737.73 126.15 736.13 127.36 733.46 C 128.76 727.84 125.27 722.35 121.51 718.49 C 118.82 715.38 114.27 716.27 110.69 716.78 C 99.12 719.95 88.77 726.60 76.99 729.14 C 72.86 729.90 68.28 729.84 64.73 727.31 C 58.91 723.63 57.61 715.38 60.53 709.47 C 63.90 702.29 69.30 696.36 74.52 690.49 C 82.94 681.73 92.40 673.07 104.29 669.49 C 115.90 666.42 127.99 668.58 139.70 669.78 C 149.26 670.75 158.02 675.58 165.12 681.88 C 167.19 683.72 169.47 685.32 171.98 686.53 C 175.35 685.08 178.23 682.62 181.78 681.62 C 186.45 680.14 191.53 680.76 196.13 678.98 C 204.77 675.65 212.34 669.77 221.45 667.63 C 223.61 666.96 226.14 668.56 228.00 666.95 C 242.67 656.40 262.32 657.15 277.15 647.03 C 245.18 641.63 214.15 631.69 184.02 619.86 C 176.38 617.00 167.06 617.42 161.18 610.94 C 156.05 613.21 150.82 608.71 145.64 610.64 C 139.82 613.57 136.11 619.71 129.70 621.67 C 118.79 625.53 106.74 625.75 95.47 623.40 C 79.30 619.44 64.57 609.77 54.59 596.45 C 53.01 594.80 53.39 591.94 51.24 590.81 C 47.70 588.78 46.95 584.47 46.55 580.77 C 46.08 575.23 46.77 569.65 45.92 564.14 C 47.89 562.54 49.12 559.45 51.85 559.15 C 56.18 562.12 59.71 566.15 64.32 568.75 C 71.52 573.06 78.97 576.95 86.63 580.39 C 88.81 581.29 91.23 582.24 93.62 581.76 C 95.53 579.78 96.61 577.18 97.80 574.74 C 99.65 570.50 101.86 566.16 101.72 561.41 C 95.33 558.12 88.03 557.43 81.45 554.64 C 74.38 551.69 66.52 549.59 60.96 544.03 C 58.21 541.38 57.37 536.81 59.64 533.59 C 62.81 528.79 67.81 525.61 72.81 522.98 C 84.27 517.33 97.12 513.37 110.02 514.85 C 117.60 515.70 125.50 517.52 131.51 522.50 C 133.87 524.63 137.51 523.97 139.93 526.05 C 143.37 528.91 144.57 533.45 146.02 537.50 C 147.02 536.37 147.98 535.22 148.97 534.09 C 156.26 541.96 156.90 553.85 164.67 561.34 C 170.69 566.12 178.52 567.53 185.52 570.37 C 196.11 573.93 206.10 578.99 216.77 582.33 C 221.32 583.67 225.38 586.15 229.28 588.77 C 239.37 587.97 248.54 593.35 258.43 594.26 C 275.72 595.48 292.15 601.41 309.02 604.92 C 317.61 606.66 326.25 608.41 334.48 611.49 C 338.81 613.09 343.15 614.70 347.70 615.61 C 351.33 616.34 354.52 618.37 358.10 619.29 C 362.76 618.84 367.16 616.98 371.59 615.54 C 416.99 600.80 460.45 580.61 506.17 566.78 C 506.63 551.55 513.80 537.14 524.52 526.51 C 530.48 520.14 537.18 514.51 543.18 508.18 C 544.58 506.53 546.88 506.39 548.84 505.89 Z" />
<path fill="#fefefe" d=" M 392.91 514.81 C 395.71 511.60 400.29 510.47 403.98 508.45 C 409.54 511.83 412.23 518.64 411.82 524.95 C 411.75 527.51 409.61 529.86 406.94 529.53 C 403.11 529.42 398.60 530.12 395.38 527.63 C 393.13 523.86 392.08 519.15 392.91 514.81 Z" />
<path fill="#fefefe" d=" M 536.50 530.52 C 544.50 520.86 554.95 511.70 567.95 510.45 C 579.90 509.24 593.43 512.30 601.28 522.03 C 590.38 527.87 577.90 529.92 567.14 536.05 C 562.08 538.70 555.55 541.53 554.79 547.97 C 554.06 556.26 558.41 563.71 562.36 570.64 C 565.30 575.53 566.68 581.27 570.13 585.86 C 571.42 587.76 573.90 587.53 575.89 587.18 C 583.12 585.61 589.87 582.47 596.65 579.61 C 607.74 574.72 617.55 565.84 630.27 565.65 C 629.91 575.44 625.45 584.71 618.70 591.70 C 611.09 599.85 601.59 605.85 593.57 613.54 C 592.11 615.14 589.76 615.07 587.79 615.43 C 573.33 617.41 558.09 615.00 545.41 607.59 C 532.97 600.46 523.50 587.66 522.12 573.17 C 519.90 557.60 526.87 542.36 536.50 530.52 Z" />
<path fill="#fefefe" d=" M 250.37 512.51 C 254.28 512.06 259.34 511.37 262.15 514.80 C 264.72 518.51 263.65 523.45 262.50 527.48 C 259.83 529.64 256.61 531.81 253.03 531.54 C 247.76 529.10 244.51 522.72 246.18 517.04 C 246.57 514.89 248.17 512.93 250.37 512.51 Z" />
<path fill="#fefefe" d=" M 369.31 521.67 C 374.28 518.92 379.23 515.81 384.97 514.97 C 385.78 521.28 390.19 526.19 392.14 532.10 C 393.03 534.53 392.20 537.64 389.55 538.51 C 382.78 541.37 373.61 539.18 369.49 533.05 C 370.14 529.26 369.56 525.46 369.31 521.67 Z" />
<path fill="#fefefe" d=" M 271.54 516.60 C 277.36 517.01 283.54 515.67 289.08 517.98 C 292.20 520.64 291.65 525.30 291.92 529.00 C 291.69 531.87 292.41 535.72 289.50 537.48 C 286.20 539.62 281.90 539.37 278.19 538.61 C 275.40 537.97 272.30 536.70 271.10 533.90 C 268.37 528.38 271.04 522.31 271.54 516.60 Z" />
<path fill="#fefefe" d=" M 306.43 519.63 C 312.52 518.56 319.07 519.37 324.41 522.62 C 331.91 527.87 331.09 540.71 323.33 545.32 C 314.87 550.21 302.59 546.23 298.69 537.22 C 296.70 532.43 297.21 526.82 299.18 522.11 C 301.02 520.32 304.00 520.23 306.43 519.63 Z" />
<path fill="#fefefe" d=" M 343.55 520.93 C 348.84 520.29 354.28 519.77 359.55 520.85 C 363.65 521.61 365.13 526.15 366.46 529.55 C 367.65 533.69 369.28 539.26 365.45 542.53 C 360.23 547.27 352.30 549.94 345.49 547.33 C 341.93 545.97 340.26 542.22 338.89 538.95 C 336.81 533.99 336.08 527.80 339.11 523.07 C 339.96 521.44 341.96 521.30 343.55 520.93 Z" />
<path fill="#fefefe" d=" M 106.53 528.35 C 124.81 526.32 142.74 538.90 149.27 555.72 C 153.53 566.86 152.82 579.82 147.35 590.43 C 140.49 604.17 126.43 614.16 111.07 615.55 C 104.56 615.97 97.80 615.92 91.65 613.49 C 79.45 608.83 68.47 600.93 60.23 590.80 C 56.84 586.72 55.87 581.17 56.81 576.04 C 66.12 580.57 76.05 583.58 85.60 587.51 C 90.22 589.56 94.89 591.93 100.03 592.24 C 103.14 592.18 106.48 590.93 108.13 588.14 C 112.46 581.40 114.82 573.63 116.99 565.99 C 117.66 562.48 118.81 557.15 114.61 555.43 C 106.22 552.74 98.10 549.10 90.64 544.37 C 88.46 543.08 86.76 541.17 85.43 539.04 C 89.50 531.53 98.90 529.90 106.53 528.35 Z" />
<path fill="#fefefe" d=" M 164.28 574.04 C 166.13 572.75 168.75 573.50 170.77 574.13 C 184.51 579.31 197.49 586.25 210.92 592.17 C 216.92 594.85 223.24 597.04 229.86 597.47 C 231.88 597.43 233.09 599.30 234.79 600.10 C 236.88 601.30 239.56 599.76 241.60 601.14 C 248.89 605.80 257.61 607.06 265.89 608.95 C 275.08 611.06 284.75 610.93 293.66 614.29 C 295.96 615.24 298.51 616.54 299.29 619.12 C 300.16 622.62 297.31 626.01 294.18 627.19 C 280.62 632.00 266.02 630.06 252.16 627.84 C 239.66 625.65 227.18 623.10 215.22 618.78 C 201.02 613.71 186.61 609.17 172.72 603.28 C 167.74 601.20 162.31 600.17 157.62 597.43 C 155.97 596.73 156.23 594.72 156.42 593.28 C 157.65 588.63 161.37 584.98 162.04 580.12 C 162.60 578.08 162.50 575.47 164.28 574.04 Z" />
<path fill="#fefefe" d=" M 401.17 618.30 C 432.04 603.46 465.70 595.70 497.14 582.40 C 497.61 582.41 498.56 582.43 499.03 582.44 C 499.18 583.99 499.33 585.55 499.51 587.11 C 500.73 587.20 501.96 587.31 503.19 587.43 C 504.97 596.14 510.82 603.50 511.92 612.41 C 474.24 626.15 436.00 638.56 399.43 655.14 C 401.65 655.87 403.95 656.35 406.20 657.03 C 405.34 661.63 399.88 660.06 396.87 662.19 C 399.64 662.74 402.50 663.46 404.27 665.87 C 405.46 664.00 406.43 661.71 408.52 660.66 C 409.92 660.31 411.37 660.38 412.81 660.31 C 412.84 660.85 412.89 661.93 412.91 662.48 C 411.48 662.79 410.07 663.12 408.66 663.49 C 415.91 668.19 425.58 662.56 433.04 666.97 C 417.77 669.30 401.82 665.71 387.02 671.22 C 382.50 669.67 377.90 667.98 373.04 668.14 C 362.13 668.01 352.47 673.67 342.17 676.37 C 319.16 682.73 298.43 695.52 275.16 701.09 C 254.63 705.66 233.86 709.77 214.23 717.52 C 212.79 718.06 211.34 718.56 209.89 719.03 C 209.55 711.84 206.61 705.09 203.09 698.93 C 201.95 696.83 200.54 694.84 200.05 692.47 C 204.70 690.45 209.44 688.57 213.82 685.98 C 213.24 684.58 212.65 683.18 212.15 681.77 C 214.58 682.21 216.89 684.69 219.41 683.34 C 239.71 674.49 261.03 668.35 281.96 661.21 C 309.18 651.77 335.13 638.95 362.77 630.66 C 375.64 626.79 388.84 623.79 401.17 618.30 Z" />
<path fill="#fefefe" d=" M 439.08 667.03 C 445.19 662.37 453.15 664.58 459.96 666.10 C 464.41 667.38 468.53 664.18 473.00 664.75 C 488.04 665.20 501.04 673.52 515.04 677.93 C 519.63 679.46 524.49 679.80 529.29 679.62 C 529.31 680.49 529.35 682.24 529.37 683.11 C 532.69 683.34 536.02 683.45 539.34 683.58 C 539.91 685.12 539.87 687.12 541.24 688.23 C 542.64 688.64 544.14 688.43 545.59 688.43 C 537.73 695.66 533.16 705.71 530.63 715.93 C 528.07 715.44 525.64 714.51 523.21 713.63 C 510.92 709.17 498.58 704.83 486.21 700.59 C 476.33 696.86 465.76 695.50 455.76 692.16 C 447.48 689.52 442.90 681.38 439.30 674.07 C 440.01 672.64 440.77 671.23 441.57 669.85 C 440.73 668.90 439.90 667.97 439.08 667.03 Z" />
<path fill="#fefefe" d=" M 569.61 677.45 C 581.16 673.83 593.52 671.69 605.59 673.63 C 612.91 674.90 620.36 677.94 625.06 683.94 C 630.75 690.87 631.05 700.57 629.32 708.99 C 621.44 707.69 614.00 704.59 606.81 701.22 C 602.29 698.81 598.48 692.92 592.68 694.70 C 587.39 698.14 584.15 703.83 581.24 709.27 C 578.26 714.99 575.17 721.26 575.81 727.89 C 577.62 735.21 586.59 735.58 591.99 739.14 C 598.57 743.71 606.05 746.68 612.75 751.04 C 611.88 754.50 608.55 756.37 605.53 757.70 C 596.84 761.33 587.48 764.29 577.95 763.27 C 566.50 761.75 556.03 754.77 549.87 745.06 C 546.57 740.11 544.56 734.18 544.85 728.20 C 545.92 716.68 551.91 706.47 557.67 696.72 C 560.30 692.33 561.20 686.70 565.56 683.54 C 567.61 682.05 568.97 679.89 569.61 677.45 Z" />
<path fill="#fefefe" d=" M 107.70 678.51 C 125.36 674.36 144.34 678.99 159.51 688.51 C 170.52 695.48 176.80 707.92 179.10 720.43 C 181.13 731.72 180.05 744.38 172.67 753.64 C 157.47 772.39 129.73 779.84 107.29 770.68 C 103.58 769.05 99.72 767.24 97.14 764.00 C 100.33 759.94 105.64 758.84 110.20 757.02 C 120.27 753.09 131.52 751.14 140.02 744.03 C 144.69 740.17 145.62 733.54 144.10 727.94 C 142.23 721.60 139.46 715.10 134.08 710.94 C 129.44 707.21 124.41 702.78 118.03 703.24 C 101.81 703.25 89.59 716.80 73.71 718.36 C 76.43 709.10 80.90 700.39 86.71 692.70 C 91.97 685.94 99.22 680.38 107.70 678.51 Z" />
</svg>
