<?xml version="1.0" encoding="utf-8"?>
<!-- Generator: Adobe Illustrator 15.1.0, SVG Export Plug-In . SVG Version: 6.00 Build 0)  -->
<!DOCTYPE svg PUBLIC "-//W3C//DTD SVG 1.1//EN" "http://www.w3.org/Graphics/SVG/1.1/DTD/svg11.dtd">
<svg version="1.1" xmlns="http://www.w3.org/2000/svg" xmlns:xlink="http://www.w3.org/1999/xlink" x="0px" y="0px" width="681px"
	 height="960px" viewBox="0 0 681 960" enable-background="new 0 0 681 960" xml:space="preserve">
<g id="Layer_1">
	<path fill="#050505" d="M474.859,199.13c0.23,6.1-0.66,12.76,2.889,18.14c1.352-0.2,2.701-0.45,4.063-0.69
		c1.199,4.04,0.18,9.05,3.369,12.27c2.609,1.26,5.059-2.22,7.818-0.85c3.682,1.66,6.641,4.83,10.82,5.39
		c0.74-2.87,0.301-5.94,1.451-8.71c2.17,2.37,3.768,5.9,7.41,6.15c0.1-1.66,0.18-3.31,0.27-4.96c3.449-2.95,6.35-6.84,7.07-11.43
		c1.119-9.37-0.83-18.69-2.621-27.85c-1.229-5.71-5.82-9.88-7.74-15.28c-0.568-5.37,5.861-8.46,5.5-13.84
		c0.25-4.99-2.188-9.62-5.318-13.33c-2.439-2.93-6.9-5.78-9.33-8.72c3.148-1.36,22.648-11.12,26.238-13.59
		c2.07-1.68,2.23-4.45,2.15-6.9c-6.547,1.718-30.123,4.757-59.311,8.191c-2.125-1.129-4.436-1.957-7.143-2.208
		c-4.797-0.446-9.934,1.764-14.258,3.537c-1.195,0.49-2.375,1.01-3.543,1.555c-56.137,6.401-120.252,13.258-127.145,15.284
		c-1.934,0.607-10.222,3.093-10.222,3.093S126.24,233.739,107.43,245.429c-4.87,3.04-9.42,6.57-13.96,10.07
		c-3.6,2.84-6.92,6.43-7.83,11.08c4.61,1.99,8.07-2.37,12.09-3.7c3.01-0.29,6.06,1.19,9.01,0.02c24.85-7.29,48.7-20.72,75.27-19.95
		c-3.37,19.62-10.96,38.28-13.64,58.03c-0.62,4.42-1.136,9.128-2.186,13.498c-1.01,4.39-2.73,8.66-2.9,13.22
		c-0.24,6.67,0.795,13.222,2.136,19.782c1.1,4.91,4.82,9.36,3.56,14.64c-1.53,4.89-6,7.97-8.54,12.27
		c-3.21,5.49-4.39,12.16-3.12,18.41c1.76,9.71,7.3,18.15,12.61,26.27c3.62,5.31,7.25,10.671,11.66,15.36
		c3.94,4.2,9.54,6.312,13.48,10.512c4.9,4.77,8.15,18.729,7.45,19.47c1.21,3.57,2.93,6.93,4.93,10.13c2.25,3.34,2.3,7.67,1.33,11.46
		c-1.64,3.99-4.97,6.9-7.42,10.37c-2.78,3.62-3.9,8.13-5.59,12.3c-1.63,4.25-3.43,8.91-2.02,13.49c2.05,8.95,8.41,16.05,15.22,21.84
		c11.53,9.09,25.1,15.11,38.74,20.29l12.45,5.53c11.37,5.27,22.29,11.528,34.07,15.88c17.089,6.62,36.149,6.819,53.86,2.71
		c16.051-3.431,31.699-8.63,46.58-15.57c11.279-5.43,23.02-9.96,33.859-16.26c10.059-5.95,19.58-14.55,22.689-26.22
		c1.98-7.669,2.92-16.73-2.109-23.48c-4-6.6-12.59-10.18-13.961-18.31c-0.049-10.312,7.43-18.38,10.59-27.75
		c1.65-4.521,1.461-10.261,5.621-13.44c3.75-2.96,7.869-5.42,11.68-8.3c10.48-7.95,21.84-14.68,32.141-22.88
		c2.99-2.5,4.77-6.18,5.551-9.94c1.469-8.6-0.021-17.82-4.891-25.15c-4.721-7.08-10.4-13.71-17.619-18.35
		c-5.301-3.22-7.311-10.29-5.73-16.09c1.949-7.82,7.709-13.85,11.07-21.03c7.93-16.78,8.359-36.1,5.719-54.17
		c-2.439-20.05-10.34-39.26-22.129-55.61c-14.271-19.78-33.271-35.41-52.18-50.52c13.139-3.45,49.629-15.59,53.908-16.9
		c-0.078,4.41,1.859,8.6,5.08,11.58c3.65,3.67,8.609,7.68,7.789,13.49c-1.35,7.64-6.488,14.18-6.719,22.12L474.859,199.13z"/>
	<path fill="#FEFEFE" d="M378.89,244.763c19.08-4.6,39.062-4.52,58.392-1.47c7.38,1.15,15.04,2.13,21.729,5.68
		c6.03,3.2,8.84,9.8,11.182,15.85c4.27,11.54,8.47,23.58,7.938,36.06c-0.76,11.58-7.29,21.52-12.22,31.68
		c-3.96,7.71-10.45,15.12-9.99,24.25c1.9,4.78,5.87,8.37,8.87,12.47c5.94,7.38,12.77,14.09,17.72,22.22
		c2.08,3.54,2.65,8.9-0.68,11.87c-3.812,4.24-8.99,6.98-12.61,11.42c-7.22,8.29-13.358,18.44-23.818,23.03
		c-7.602,3.5-16.312,2.29-23.98-0.33c-10.28-3.76-19.55-9.699-29.36-14.479c-4.318-1.79-9.5-3.63-14-1.38
		c-1.898,1.21-2.068,3.63-1.289,5.57c2.431,6.681,7.851,11.601,11.439,17.601c0.93,1.24,0.88,2.83,1.021,4.311
		c-3.342-0.101-6.2-2.54-9.61-2.08c-4.88,0.04-7.98,5.931-13.13,4.45c-7.271-2.21-14.21-7.471-22.2-5.689
		c-3.6,0.399-6,4.479-9.771,3.63c-7.461-1.351-13.409-7.601-21.279-7.319c-6.4-0.181-12.03,5.819-18.5,3.359
		c-4.8-1.301-9.31-4.591-14.44-3.99c-4.35,0.311-3.98,6.75-8.25,6.99c-2.37,0.569-4.13-1.439-6.05-2.42c-2.46-2-5.75,0.01-8.4-1.49
		c-0.06-6.359,4.24-11.63,5.1-17.779c0.24-2.29-0.65-5.74-3.47-5.7c-4.92-0.58-9.42,2.04-13.72,4.05
		c-9.79,5.601-20.83,9.57-32.17,9.94c-13.19-1.271-23.66-10.851-31.66-20.7c-4.66-5.62-9.32-12.02-9.8-19.56
		c-0.21-4.34,10.64-19.43,14.4-22.96c8.49-8.72,17.8-17.5,21.76-29.35c1.1-5.51,0.33-11.2-0.34-16.72
		c-0.97-6.45-5.82-12.9-12.46-14.1c-4.41,0.02-5.45,5.48-4.48,8.88c2.86,9.91,1.26,20.36-0.41,30.34c0.33,0.28-4.96-7.42-5.49-12.06
		c0.51-5.33-1.981-10.539-1.741-15.934c0.417-8.884,3.011-13.707,5.202-20.306c2.36-5.17,6.86-9.021,11.41-12.25
		c12.28-7.55,25.48-13.85,39.54-17.29c8.83-2.09,17.97-2.34,27.01-1.97c10.25,0.38,20.52,2.4,29.86,6.74
		c1.97,0.93,3.73,2.271,5.19,3.89c5.21,6.38,14.21,7.83,21.99,7.13c6.25-0.86,12.8-2.17,17.96-6.03c2.608-1.84,3.71-4.94,5.38-7.53
		c5.96-9.43,13.64-17.689,22.14-24.88C371.85,248.063,375.13,245.813,378.89,244.763z"/>
	<path fill="#050505" d="M462.259,291.835c1.278-0.864,3.208-1.412,4.518-0.287c2.411,2.457,2.542,6.227,2.295,9.458
		c-1.748,7.523-7.141,13.581-12.905,18.444c-0.014,4.019-1.817,7.703-2.446,11.623c-2.354,2.772-8.092,0.886-8.945-2.709
		c-2.492-7.803-1.119-16.632,3.187-23.55C451.412,299.205,456.91,295.431,462.259,291.835z"/>
	<path fill="#050505" d="M269.46,298.71c7.26-1.33,15.05,1.37,20.08,6.74c4.89,4.7,8.22,10.69,11.43,16.59
		c3.601,6.14,3.83,13.44,5.04,20.28c0.73,4.16,1.23,8.8-1.229,12.53c-3.34,5.17-6.74,10.43-11.2,14.72
		c-13.18,11.02-29.16,19.63-46.59,20.74c-8.39,0.27-16.87,0.37-25.15-1.21c-3.34-0.93-7.71-3.02-7.5-7.09
		c-0.38-2.64,2.89-11.95,4.35-14.46c1.47-2.59,3.8-4.69,4.74-7.57c0.85-5.7-1.4-11.51,0.31-17.14c2.09-8.1,4.66-16.45,10.25-22.89
		C243.19,309.42,255.62,301.37,269.46,298.71z"/>
	<path fill="#FEFEFE" d="M240.65,341.6c4.01-10.27,14.73-16.58,25.32-17.86c2.82-0.17,6.55-0.81,8.41,1.93
		c1.89,4.35,5.71,24.64,5.05,24.86c-0.64,4.36-5.04,6.67-5.9,10.96c-5.85,4.99-14.06,5.76-21.45,5.17
		c-5.78-0.3-11.66-3.92-13.42-9.62C237.93,351.85,238.86,346.49,240.65,341.6z"/>
	<path fill="#050505" d="M327.33,367.11c3.3-0.79,6.96-0.28,9.61,1.93c5.42,4.85,6.688,12.99,12.8,17.21
		c5.278,3.97,11.56,7.5,14.14,13.96c1.74,5.2,1.39,11.33-1.648,16.01c-4.972,7.57-14.312,11.811-23.28,10.98
		c-4.07-0.28-6.812-4.46-11-4.15c-4.69,0.33-8.08,4.04-12.34,5.58c-5.521,2.48-12.222,0.23-15.771-4.479
		c-6.77-8.7-7.15-21.92-0.59-30.84c6.04-8.49,11.42-17.9,20.21-23.91C321.72,367.69,324.65,367.59,327.33,367.11z"/>
	<path fill="#FEFEFE" d="M397.01,438.21c14.79,5.32,20.102,13.78,35.91,16.21c-0.88,6.49-0.87,8.8-3.85,14.63
		c-2.472,4.72-1.4,9.96-5.48,13.59c-4.92,1.44-10.3-1.37-12.35-5.979c-3.3-7.2-3.5-15.37-6.38-22.73
		C401.99,446.64,399.87,445.5,397.01,438.21z"/>
	<path fill="#FEFEFE" d="M246.667,437.44c3.209,4.848-3.685,11.459-5.045,15.708c-4.293,8.032-2.975,17.263-6.44,25.461
		c-1.15,4.099-8.153,5.407-10.847,2.942C219.381,477.388,206.31,453.138,210,446C219.169,446.123,239.975,438.123,246.667,437.44z"
		/>
	<path fill="#FEFEFE" d="M317.41,453.29c3.02-1.69,6.479,0.52,8.13,3.1c2.27,4.15,3.11,9.062,2.8,13.65
		c-0.648,5.17-1.25,10.49-4.93,14.35c-1.535,2.061-16.133,1.235-18.035-0.39c-7.2-5.108-6.276-15.65-1.196-22.799
		C308.13,457.89,312.64,455.24,317.41,453.29z"/>
	<path fill="#FEFEFE" d="M350.45,453.65c7.96-2.021,16.51,4.238,17.108,12.408c0.382,7.682-0.05,15.932-3.5,22.91
		c-4.79,2.92-10.8,1.392-15.79-0.21c-3.818-1.108-6.658-4.38-7.408-8.25c-0.96-6.02-1.96-12.358,0.09-18.27
		C342.66,458.19,346.21,454.89,350.45,453.65z"/>
	<path fill="#FEFEFE" d="M283.24,455.4c4.2-1.132,7.6-0.624,11.75,1.595c0,2.838-2.165,7.6-2.631,12.161
		c-0.602,5.892,0.293,11.449-1.609,12.094c-2.5,1-11.6,2.338-17.21-0.851c-4.18-3.771-2.82-10.11-0.58-14.58
		C275.22,461.5,278.16,456.64,283.24,455.4z"/>
	<path fill="#FEFEFE" d="M382.42,458.48c3.76-1.74,8.8-0.512,10.91,3.188c3.65,5.75,3.46,13.1,1.61,19.45
		c-1.08,3.12-2.672,6.41-5.66,8.11c-3.99,1.438-8.57-0.222-10.78-3.812c-4.07-6.29-5.2-14.86-1.73-21.67
		C378.07,461.51,379.89,459.34,382.42,458.48z"/>
	<path fill="#FEFEFE" d="M253.066,462.523c2.069-3.771,7.774-5.89,11.611-3.537c-0.386,4.708-2.567,9.433-1.042,14.153
		c0.54,2.588,2,5.687,0.074,8.051c-3.706,2.478-8.551,2.759-12.864,2.243c-0.262-0.325-0.804-0.99-1.074-1.327
		C249.476,475.449,250.865,468.774,253.066,462.523z"/>
	<path fill="#FEFEFE" d="M205.738,523.959c-0.78-7.021,0.97-14.28,6.19-19.04c5.382-5.259,12.352-8.379,18.692-12.279
		c3.07-1.77,7.6-3.81,10.46-0.54c1.34,3.132,1.88,6.562,2.33,9.932c0.52,2.17-1.82,3.1-3.08,4.37c-3.96,2.68-4.44,8.02-3.84,12.358
		c1.5,8.45,7.28,16.16,15.18,19.61c2.76,1.02,8.379,2.439,11.04,0.789c2.103-1.722,2.012-1.328,3.212-4.675
		c0.141,3.104,0.719,4.734,3.708,7.926c3.027,3.269,9.865,4.592,14.525,3.882c5.43-0.78,7.845-0.892,13.326,0.298
		c4.188,2.82,8.078,6.83,13.46,7.66c3.5,0.14,7.068-0.5,10.328-1.78c4.271-1.648,5.91-1.688,9.842-3.89
		c2.58-0.65,4.56-0.521,6.39,0.939c3.33,2.761,7.88,5.189,12.52,5.091c8.25,0.05,14.69-6.07,22.4-8.062
		c7.12-1.07,14.36-0.06,21.48-1.188c3.89-0.98,6.398-4.461,7.738-8.03c4.99-1,10.352-1.22,14.82-3.9
		c4.72-3.729,6.18-10.51,4.521-16.13c-2.66-9.93-10.432-17.188-14.95-26.18c9.55,4.29,20.34,7.26,27.62,15.24
		c6.77,6.84,7.898,12.108,3.229,20.42c-5.08,9.46-12.688,17.84-22.27,22.858c-12.142,6.74-25.65,10.32-38.472,15.49
		c-17.64,6.92-35.92,13.7-55.14,13.66c-9.25,0.25-18.5-1.812-26.81-5.88c-8.45-3.631-16.03-9.15-24.86-11.932
		c-12.59-4.06-24.42-10.09-36.2-16.028c-4.76-2.54-8.032-3.494-16.08-9.722S205.738,523.959,205.738,523.959z"/>
	<path fill="#FEFEFE" d="M392.91,514.81c2.8-3.21,7.38-4.34,11.07-6.358c5.56,3.38,8.25,10.188,7.84,16.5
		c-0.07,2.56-2.21,4.91-4.88,4.58c-3.83-0.11-8.342,0.59-11.562-1.9C393.13,523.86,392.08,519.15,392.91,514.81z"/>
	<path fill="#FEFEFE" d="M250.37,512.51c3.91-0.45,8.97-1.14,11.78,2.29c2.57,3.71,1.5,8.65,0.35,12.68
		c-1.586,3.058-5.89,4.33-9.47,4.062c-5.27-2.44-8.52-8.82-6.85-14.5C246.57,514.89,248.17,512.93,250.37,512.51z"/>
	<path fill="#FEFEFE" d="M371.671,521.848c4.972-2.75,6.561-6.038,12.299-6.878c0.812,6.312,5.222,11.222,7.17,17.13
		c0.892,2.432,0.062,5.54-2.59,6.41c-6.77,2.86-9.72,0.928-13.841-5.202C374.284,529.563,371.921,525.638,371.671,521.848z"/>
	<path fill="#FEFEFE" d="M272.54,516.6c5.82,0.41,11-0.93,16.54,1.38c3.12,2.66,2.57,7.32,2.84,11.021
		c-0.23,2.87,0.49,6.72-2.42,8.479c-3.3,2.142-6.6,1.892-10.31,1.132c-2.79-0.642-5.89-1.91-7.09-4.71
		C269.37,528.38,272.04,522.31,272.54,516.6z"/>
	<path fill="#FEFEFE" d="M306.43,519.63c6.09-1.07,12.642-0.26,17.98,2.99c7.5,5.25,6.68,18.09-1.08,22.7
		c-8.46,4.89-20.74,0.909-24.64-8.102c-1.99-4.79-1.48-10.398,0.488-15.108C301.02,520.32,304,520.229,306.43,519.63z"/>
	<path fill="#FEFEFE" d="M343.55,520.93c5.29-0.64,10.73-1.159,16-0.08c4.102,0.762,5.58,5.302,6.91,8.7
		c1.19,4.142,2.82,9.71-1.01,12.98c-5.22,4.739-13.15,7.41-19.96,4.8c-3.562-1.36-5.23-5.11-6.602-8.38
		c-2.08-4.96-2.81-11.15,0.222-15.88C339.96,521.44,341.96,521.3,343.55,520.93z"/>
	<path fill="#050505" d="M402.354,387.57c-8.761-0.164-29.258-6.249-46.59-20.74c-4.459-4.29-7.858-9.55-11.198-14.72
		c-2.462-3.73-1.962-8.37-1.23-12.53c1.211-6.84,1.439-14.14,5.039-20.28c3.211-5.9,6.541-11.89,11.432-16.59
		c5.029-5.37,12.818-8.07,20.079-6.74c13.84,2.66,26.271,10.71,35.471,21.24c5.59,6.44,8.159,14.79,10.25,22.89
		c1.711,5.63-0.539,11.44,0.311,17.14c0.939,2.88,4.47,12.333,5.94,14.923c1.459,2.51,1.166,7.628-3.188,12.337
		C424.314,389.209,411.115,387.733,402.354,387.57z"/>
	<path fill="#FEFEFE" d="M386.643,322.107c9.031,1.298,18.042,6.483,22.052,16.753c1.791,4.89,2.721,10.25,1.989,15.44
		c-1.76,5.7-7.641,9.32-13.42,9.62c-7.391,0.59-13.84,1.622-21.14-5.717c0.196-1.688-8.008-14.806-7.354-21.379
		s1.318-9.724,5.897-13.49S383.77,321.694,386.643,322.107z"/>
	<path fill="#050505" d="M425.667,381.167"/>
	<path fill="#050505" d="M249.62,351.456c0-5.3,4.645-12.053,9.945-12.053s9.597,3.297,9.597,8.597s-4.297,10.597-9.597,10.597
		S249.62,356.756,249.62,351.456z"/>
	<path fill="#050505" d="M377.135,344.421c0-5.3,4.297-7.597,9.597-7.597c5.301,0,9.42,6.119,9.42,11.419s-4.119,7.775-9.42,7.775
		C381.432,356.018,377.135,349.721,377.135,344.421z"/>
</g>
<g id="Layer_3">
	<g>
		<path fill="#050505" d="M498.833,767.512c-30.884-11.05-30.931-26.069-31.108-35c-21.06-5.971-105.198-31.433-153.304-47.493
			c-48.756-16.275-123.043-43.56-139.359-49.573c-6.085,3.475-22.394,11.078-42.109,11.077c-9.399-0.001-18.917-1.543-28.288-4.584
			c-17.69-5.741-27.86-10.077-34.724-27.081c-5.052-12.517-4.951-23.508-4.945-23.97c0,0,0.329-1.842,3.31-3.166
			s5.821-1.898,5.821-1.898c23.107,9.751,47.901,13.766,54.434,15.263c3.91-2.527,12.746-14.63,12.959-19.322
			c-4.563-4.123-29.864-16.888-50.759-24.42c0,0-1.757-0.588-2.584-4.065s0.373-5.064,0.373-5.064
			c0.816-0.753,18.841-15.777,46.032-15.777c7.638,0,15.192,1.435,22.458,4.266c30.883,12.03,35.714,45.326,37.207,55.568
			c18.079,5.405,94.49,28.197,138.799,40.66c44.469,12.508,130.257,44.547,151.39,52.213c5.215-6.027,19.182-22.492,40.206-22.492
			c8.094,0,16.796,1.57,25.864,4.671c24.997,8.544,32.87,22.636,35.073,32.953c2.384,11.171-0.01,15.102-0.161,15.487
			c0,0,0.144,1.487-3.606,2.487s-5.278,0.483-5.278,0.483c-7.724-3.905-31.841-9.577-45.414-9.577c-2.087,0-3.844,0.264-5.103,0.766
			c-2.652,2.034-8.481,12.289-9.204,16.052c3.781,5.487,24.313,14.786,44.122,19.728c0,0,2.771,0.415,3.877,2.549
			c2.22,4.287-0.789,6.196-0.789,6.196c-0.697,0.742-17.399,18.187-44.75,17.82C511.663,772.165,506.521,770.263,498.833,767.512z
			 M533.573,748.852c-23.801-8.54-26.776-15.427-28.582-19.531c-0.558-1.269-2.039-4.637,4.149-15.912
			c3.951-7.198,6.821-13.178,10.267-14.705c3.014-1.334,7.537-0.453,11.711-0.453c13.877,0,43.019,6.879,42.268,3.63
			c-2.505-10.841-11.693-19.044-27.313-24.382c-7.65-2.615-14.86-3.941-21.433-3.941c-21.424,0-32.064,20.25-32.403,20.815
			l-2.587,4.471l-5.24-1.917c-0.512-0.188-19.199-6.408-51.219-17.029c-34.457-11.431-78.131-28.857-104.072-36.154
			c-50.362-14.165-141.938-41.69-142.858-41.967l-4.144-1.256l-0.175-3.87c-0.058-1.286,0.232-37.845-30.025-49.632
			c-5.641-2.198-11.474-3.313-17.336-3.313c-12.776,0-22.412,2.627-29.278,6.859c4.784,1.839,9.642,6.799,15.785,9.306
			c27.494,11.217,33.07,16.431,33.711,20.308c1.262,7.645-8.857,20.232-14.714,26.468c-3.573,3.807-7.073,5.718-10.697,5.838
			c-0.106,0.004-0.221,0.812-0.335,0.812c-2.179,0-3.696,5.442-33.11-6.142c-6.233-2.454-12.33-4.929-17.181-6.921
			c2.298,11.685,7.121,23.61,30.279,31.124c7.965,2.586,16.01,3.896,23.912,3.896c21.339,0.001,37.203-10.496,37.32-10.577
			l2.952-2.12l3.507,1.298c0.435,0.16,23.251,5.85,51.867,16.188c28.617,10.339,69.182,20.251,96.455,29.354
			c54.495,18.193,155.665,53.978,155.665,53.978l-1.341,4.662c-0.045,0.186-7.635,18.021,24.065,29.363
			c6.216,2.225,9.951,3.884,15.974,3.964c11.996,0.161,21.564-4.211,27.667-8.095C543.13,752.086,538.417,750.589,533.573,748.852z"
			/>
	</g>
	<g>
		<path fill="#FFFFFF" d="M85.781,712.053c0,0,40.733-10.954,53.575-4.668c3.485,1.705,8.861,20.642,6.778,24.849
			c-7.353,14.846-53.57,23.323-53.57,23.323s12.477,31.084,57.92,17.468c45.442-13.616,36.421-48.089,36.421-48.089
			s113.654-31.462,163.142-49.325c49.488-17.861,134.986-47.937,134.986-47.937s26.455,27.908,61.485,18.982
			c35.03-8.928,37.397-44.101,37.397-44.101s-52.012,15.34-57.707,10.813c-5.696-4.527-11.009-25.183-6.254-28.966
			c4.757-3.785,60.634-14.622,60.634-14.622s-27.34-31.658-64.855-19.779c-37.517,11.877-35.377,43.13-35.377,43.13
			s-90.293,24.623-146.158,41.795c-55.864,17.173-157.442,53.816-157.442,53.816s-16.842-25.991-55.978-14.865
			C81.644,685.003,85.781,712.053,85.781,712.053z"/>
		<path d="M587.492,598.281c-2.787-1.652-5.521-0.899-5.521-0.899c-10.724,3.161-40.874,11.368-51.476,11.368
			c-0.312,0-0.563-0.008-0.76-0.019c-3.114-3.65-6.461-16.35-5.315-20.361c5.902-2.473,33.188-8.551,57.484-13.264
			c0,0,2.813-0.743,3.936-3.458s-0.362-5.182-0.362-5.182c-0.868-1.005-21.595-24.587-52.796-24.587
			c-6.367,0-12.767,1.005-19.021,2.985c-31.414,9.944-35.113,32.489-38.049,42.296c-0.709,0.438-1.314,1.051-1.723,1.843
			c-19.118,5.246-93.624,25.796-141.777,40.6c-48.621,14.946-132.68,44.927-153.165,52.271
			c-4.842-4.934-19.161-16.821-37.292-16.821c-7.071,0-14.749,1.164-22.82,3.458c-22.513,6.4-33.04,19.893-37.909,30.086
			c-5.227,10.943,7.407,18.631,7.407,18.631c8.723-3.336,30.421-5.526,43.569-5.526c1.845,0,2.989,0.185,3.664,0.362
			c2.231,3.457,5.228,14.959,4.636,18.112c-4.445,8.185-30.751,17.19-48.664,19.821c0,0-2.228,0.752-4.228,3.002
			s-0.724,4.49-0.724,4.49c3.746,9.136,16.837,24.454,43.35,24.457c7.047,0.001,14.646-1.205,22.587-3.585
			c25.939-7.772,34.928-24.001,38.739-34.017c2.313-6.077,2.668-11.609,2.504-15.415c22.487-6.287,115.423-36.488,158.681-52.102
			c42.638-15.389,112.351-36.44,130.508-42.599c0.664,0.637,1.436,1.009,2.239,1.154c7.738,6.201,24.854,18.632,46.24,18.634h0.006
			c5.606,0,11.251-0.714,16.78-2.122c38.769-9.881,41.734-47.423,41.841-49.015C590.062,602.882,590.279,599.934,587.492,598.281z
			 M148.446,767.688c-6.624,1.984-12.852,2.992-18.509,2.991c-15.265-0.002-23.172-5.573-27.628-11.107
			c4.546-0.903,9.643-4.041,15.782-5.725c18.912-5.191,29.99-11.521,33.868-19.349c1.993-4.025,0.584-11.45-0.949-16.972
			c-3.493-12.585-7.187-14.393-8.577-15.073c-2.776-1.358-6.221-2.02-10.531-2.02c-12.309,0-26.647-1.057-38.167,2.746
			c2.88-9.655,6.481-17.539,28.986-23.938c6.814-1.937,13.184-2.918,18.934-2.918c12.597,0,26.479,12.639,27.028,13.367
			c6.567,8.719,10.738,31.415,10.738,31.415l1.195,4.742c0.016,0.217,0.037,0.437,0.051,0.652c0.041,0.622,0.174,1.183,0.378,1.685
			C181.923,735.088,182.04,757.621,148.446,767.688z M347.646,666.393c-42.935,15.497-135.777,44.773-157.852,51.678
			c-1.227-8.638-3.57-17.474-7.467-25.25c17.6-6.316,104.396-37.337,153.956-52.571c48.199-14.815,119.425-33.896,137.138-38.612
			c0.472,7.616,1.88,15.332,4.485,22.456C458.993,629.888,389.838,651.165,347.646,666.393z M544.816,641.415
			c-4.423,1.127-8.926,1.698-13.381,1.697c-23.983-0.002-41.646-18.907-41.812-19.071l-1.681-1.667
			c-3.971-9.724-5.069-20.97-4.609-31.207c0.027-0.606-0.037-1.155-0.175-1.647c2.729-9.646,10.747-26.818,34.646-34.384
			c4.921-1.558,9.926-2.349,14.877-2.349c15.738,0,28.535,7.849,35.965,13.787c-5.118,1.043-11.552,2.38-18.065,3.804
			c-30.622,6.691-33.2,8.741-34.74,9.966c-2.614,2.082-3.885,5.427-3.883,10.227c0.003,7.851,3.861,21.867,10.139,26.855
			c2.515,1.999,5.998,2.23,8.398,2.23c10.506,0,32.658-5.613,45.651-9.174C573.294,620.343,565.548,636.131,544.816,641.415z"/>
	</g>
	<path d="M190,583.833c-0.017-6.448-10.017-6.449-10,0c0.04,15.468,1.794,32.747-13.523,41.683
		c-5.566,3.247-0.535,11.891,5.047,8.635c8.319-4.853,13.937-11.898,16.603-21.16C190.821,603.634,190.025,593.441,190,583.833z"/>
	<path d="M481.059,689.156c-4.105,12.593-10.546,24.311-13.334,37.334c-1.347,6.288,11.646,3.188,12.995-3.117
		c1.672-7.812,1.068-7.67,3.844-14.459c2.157-5.275,3.922-7.385,6.268-12.111C493.706,691.01,483.049,683.053,481.059,689.156z"/>
</g>
</svg>
